<?xml version="1.0" standalone="yes"?>
<svg xmlns="http://www.w3.org/2000/svg" width="1920" height="596">
<path style="fill:#010101; stroke:none;" d="M0 0L0 30L1 30C3.46219 16.1875 16.1874 3.46222 30 1L0 0z"/>
<path style="fill:#0195ff; stroke:none;" d="M30 0.46759C16.1811 3.07471 4.56111 14.5675 0.927469 28C-1.81498 38.138 0 50.5542 0 61L0 125L0 476L0 545C0 564.178 1.11998 582.996 21 592.506C33.9867 598.719 50.9694 596 65 596L156 596L483 596L1483 596L1772 596L1855 596C1868.34 596 1884.44 598.506 1897 593.373C1907.74 588.985 1916.14 579.186 1919.08 568C1921.6 558.383 1920 546.888 1920 537L1920 478L1920 126L1920 61C1920 50.5543 1921.81 38.1379 1919.07 28C1915.57 15.0392 1904.96 4.43359 1892 0.92749C1873.55 -4.06464 1849.1 0 1830 0L1699 0L1276 0L431 0L160 0L73 0C59.2304 0 43.5397 -2.08685 30 0.46759z"/>
<path style="fill:#010101; stroke:none;" d="M1890 0L1890 1C1903.81 3.46222 1916.54 16.1874 1919 30L1920 30L1920 0L1890 0z"/>
<path style="fill:#a2e0c9; stroke:none;" d="M1252 157L1252 158L1256 158L1252 157z"/>
<path style="fill:#bbe7d7; stroke:none;" d="M1240.67 158.333L1241.33 158.667L1240.67 158.333z"/>
<path style="fill:#ffffff; stroke:none;" d="M1230 351L1190 351C1190 374.641 1189.75 402.473 1209.04 419.699C1240.77 448.041 1301.14 433.618 1312.12 392C1321.71 355.622 1310.55 320.72 1284.96 294C1267.19 275.445 1241.25 260.341 1234.16 234C1231.81 225.271 1231.7 212.922 1236.48 205.004C1243.27 193.778 1260.75 192.558 1269.47 202.301C1277.26 211.001 1275 225.281 1275 236L1315 236C1315 214.206 1314.04 188.348 1296.91 172.289C1265.91 143.237 1207.69 157.103 1194.67 197C1181.31 237.942 1201.66 272.996 1230 300.996C1246.04 316.841 1267.41 331.521 1272.19 355C1274.16 364.685 1275.56 375.903 1270.58 384.999C1263.83 397.355 1244.85 399.425 1235.53 388.815C1227.5 379.679 1227.91 362.245 1230 351z"/>
<path style="fill:#bbe7d7; stroke:none;" d="M1265.67 158.333L1266.33 158.667L1265.67 158.333M1235 159L1236 160L1235 159M1271 159L1272 160L1271 159M1231 160L1232 161L1231 160M1275 160L1276 161L1275 160z"/>
<path style="fill:#ffffff; stroke:none;" d="M333 161L333 430L370 430L370 234L372 234L384.116 283L409.127 380L418.127 415L422.728 428.972L435 430L465 430L465 161L428 161L428 322L426 322L416.373 282L395.884 202L388.627 173L384.487 162.028L370 161L333 161z"/>
<path style="fill:#bbe7d7; stroke:none;" d="M385 161L386 162L385 161z"/>
<path style="fill:#ffffff; stroke:none;" d="M497 161L497 430L612 430L612 392L539 392L539 309L597 309L597 271L539 271L539 199L612 199L612 161L497 161M635 161L635 314C635 340.456 631.041 370.503 639.194 396C651.755 435.282 712.495 447.02 741.911 418.826C763.28 398.345 760 366.908 760 340L760 161L720 161L720 341C720 359.082 726.126 394.92 699 395.74C671.223 396.579 676 360.14 676 342C676 281.629 677 221.393 677 161L635 161z"/>
<path style="fill:#a2e0c9; stroke:none;" d="M790 161L790 430L791 430L791 240L791 186L790 161z"/>
<path style="fill:#ffffff; stroke:none;" d="M791 161L791 430L905 430L905 392L832 392L832 309L890 309L890 271L832 271L832 219L833.603 200.603L852 199L905 199L905 161L791 161z"/>
<path style="fill:#bbe7d7; stroke:none;" d="M905 161L905 199L833 199L833 200L885 200L904.397 198.972L906 190L905 161M991 161L991 430L992 430L992 240L992 186L991 161z"/>
<path style="fill:#ffffff; stroke:none;" d="M992 161L992 430L1103 430L1103 392L1033 392L1033 161L992 161z"/>
<path style="fill:#a2e0c9; stroke:none;" d="M1033 161L1033 391L1034 391L1034 229L1034 183L1033 161z"/>
<path style="fill:#bbe7d7; stroke:none;" d="M1123 161L1123 430L1124 430L1124 240L1124 186L1123 161z"/>
<path style="fill:#ffffff; stroke:none;" d="M1124 161L1124 430L1165 430L1165 161L1124 161z"/>
<path style="fill:#bbe7d7; stroke:none;" d="M1165 161L1165 430L1166 430L1166 240L1166 186L1165 161M1278 161L1279 162L1278 161z"/>
<path style="fill:#ffffff; stroke:none;" d="M1329 161L1329 199L1373 199L1373 430L1415 430L1415 199L1459 199L1459 161L1329 161M1480 161L1480 430L1595 430L1595 392L1522 392L1522 309L1580 309L1580 271L1522 271L1522 199L1595 199L1595 161L1480 161z"/>
<path style="fill:#bbe7d7; stroke:none;" d="M1225 162L1226 163L1225 162z"/>
<path style="fill:#a2e0c9; stroke:none;" d="M1281 162L1282 163L1281 162z"/>
<path style="fill:#bbe7d7; stroke:none;" d="M1283 163L1284 164L1283 163z"/>
<path style="fill:#a2e0c9; stroke:none;" d="M386 164L387 165L386 164M1220 164L1221 165L1220 164z"/>
<path style="fill:#bbe7d7; stroke:none;" d="M1287 165L1288 166L1287 165M1217 166L1218 167L1217 166z"/>
<path style="fill:#a2e0c9; stroke:none;" d="M1215 167L1216 168L1215 167M387 168L388 169L387 168z"/>
<path style="fill:#bbe7d7; stroke:none;" d="M1214 168L1215 169L1214 168z"/>
<path style="fill:#a2e0c9; stroke:none;" d="M1293 169L1294 170L1293 169M1211 170L1212 171L1211 170z"/>
<path style="fill:#bbe7d7; stroke:none;" d="M1294 170L1295 171L1294 170M1210 171L1211 172L1210 171z"/>
<path style="fill:#a2e0c9; stroke:none;" d="M388 172L389 173L388 172z"/>
<path style="fill:#bbe7d7; stroke:none;" d="M1209 172L1210 173L1209 172M1208 173L1209 174L1208 173M1207 174L1208 175L1207 174M1206 175L1207 176L1206 175M389 176L390 177L389 176z"/>
<path style="fill:#a2e0c9; stroke:none;" d="M1205 176L1206 177L1205 176z"/>
<path style="fill:#bbe7d7; stroke:none;" d="M1300 176L1301 177L1300 176M390 180L391 181L390 180M1202 180L1203 181L1202 180M1303 180L1304 181L1303 180z"/>
<path style="fill:#a2e0c9; stroke:none;" d="M1200 183L1201 184L1200 183M1305 183L1306 184L1305 183z"/>
<path style="fill:#bbe7d7; stroke:none;" d="M391 184L392 185L391 184M1199 185L1200 186L1199 185M1306 185L1307 186L1306 185M1198 187L1199 188L1198 187M1307 187L1308 188L1307 187M392 188L393 189L392 188M1197 189L1198 190L1197 189z"/>
<path style="fill:#a2e0c9; stroke:none;" d="M1308 189L1309 190L1308 189z"/>
<path style="fill:#bbe7d7; stroke:none;" d="M1196 191L1197 192L1196 191M393 192L394 193L393 192M1309 192L1310 193L1309 192M1195 194L1196 195L1195 194M1253.67 195.333L1254.33 195.667L1253.67 195.333M394 196L395 197L394 196M1246 196L1247 197L1246 196z"/>
<path style="fill:#a2e0c9; stroke:none;" d="M1247 196L1248 197L1247 196M1260 196L1261 197L1260 196z"/>
<path style="fill:#bbe7d7; stroke:none;" d="M1194 197L1195 198L1194 197z"/>
<path style="fill:#a2e0c9; stroke:none;" d="M1242 198L1243 199L1242 198M1265 198L1266 199L1265 198z"/>
<path style="fill:#bbe7d7; stroke:none;" d="M1311 198L1312 199L1311 198M539 199L539 200L612 200L589 199L539 199z"/>
<path style="fill:#a2e0c9; stroke:none;" d="M905 199L906 200L905 199z"/>
<path style="fill:#bbe7d7; stroke:none;" d="M1240 199L1241 200L1240 199M1329 199L1329 200L1373 200C1361.54 195.19 1341.48 199 1329 199M1415 199L1415 200L1459 200C1447.54 195.19 1427.48 199 1415 199M1522 199L1522 200L1595 200L1572 199L1522 199M395 200L396 201L395 200M832 200L832 271L833 271L833 222L832 200z"/>
<path style="fill:#a2e0c9; stroke:none;" d="M1193 200L1194 201L1193 200z"/>
<path style="fill:#bbe7d7; stroke:none;" d="M1239 200L1240 201L1239 200M1238 201L1239 202L1238 201M1269 201L1270 202L1269 201M1312 202L1313 203L1312 202z"/>
<path style="fill:#a2e0c9; stroke:none;" d="M396 203L397 204L396 203z"/>
<path style="fill:#bbe7d7; stroke:none;" d="M396 204L397 205L396 204z"/>
<path style="fill:#a2e0c9; stroke:none;" d="M1236 204L1237 205L1236 204z"/>
<path style="fill:#bbe7d7; stroke:none;" d="M1271 204L1272 205L1271 204M1192 205L1193 206L1192 205z"/>
<path style="fill:#a2e0c9; stroke:none;" d="M1235 206L1236 207L1235 206M1272 206L1273 207L1272 206M397 207L398 208L397 207z"/>
<path style="fill:#bbe7d7; stroke:none;" d="M1313 207L1314 208L1313 207M1234 208L1235 209L1234 208z"/>
<path style="fill:#a2e0c9; stroke:none;" d="M398 211L399 212L398 211M1191 211L1192 212L1191 211z"/>
<path style="fill:#bbe7d7; stroke:none;" d="M1191.33 212.667L1191.67 213.333L1191.33 212.667M1233 212L1234 213L1233 212M1274 213L1275 214L1274 213z"/>
<path style="fill:#a2e0c9; stroke:none;" d="M399 215L400 216L399 215M1314 215L1315 216L1314 215z"/>
<path style="fill:#bbe7d7; stroke:none;" d="M1314 216L1314 219L1315 219L1314 216z"/>
<path style="fill:#a2e0c9; stroke:none;" d="M400 219L401 220L400 219z"/>
<path style="fill:#bbe7d7; stroke:none;" d="M401 223L402 224L401 223M402 227L403 228L402 227z"/>
<path style="fill:#a2e0c9; stroke:none;" d="M1233 230L1234 231L1233 230z"/>
<path style="fill:#bbe7d7; stroke:none;" d="M403 231L404 232L403 231M1233 231L1234 232L1233 231M371 234L372 235L371 234M1191.33 234.667L1191.67 235.333L1191.33 234.667M404 235L405 236L404 235M1234 235L1235 236L1234 235z"/>
<path style="fill:#a2e0c9; stroke:none;" d="M1191 236L1192 237L1191 236z"/>
<path style="fill:#bbe7d7; stroke:none;" d="M372 238L373 239L372 238M1235 238L1236 239L1235 238M405 239L406 240L405 239M1192 241L1193 242L1192 241z"/>
<path style="fill:#a2e0c9; stroke:none;" d="M373 242L374 243L373 242M1192 242L1193 243L1192 242z"/>
<path style="fill:#bbe7d7; stroke:none;" d="M406 243L407 244L406 243M1237 243L1238 244L1237 243M1238 245L1239 246L1238 245z"/>
<path style="fill:#a2e0c9; stroke:none;" d="M374 246L375 247L374 246z"/>
<path style="fill:#bbe7d7; stroke:none;" d="M1193 246L1194 247L1193 246M407 247L408 248L407 247z"/>
<path style="fill:#a2e0c9; stroke:none;" d="M375 250L376 251L375 250M408 250L409 251L408 250M1194 250L1195 251L1194 250z"/>
<path style="fill:#bbe7d7; stroke:none;" d="M1241 250L1242 251L1241 250M376 253L377 254L376 253M1195 253L1196 254L1195 253z"/>
<path style="fill:#a2e0c9; stroke:none;" d="M409 254L410 255L409 254z"/>
<path style="fill:#bbe7d7; stroke:none;" d="M1244 254L1245 255L1244 254z"/>
<path style="fill:#a2e0c9; stroke:none;" d="M1196 256L1197 257L1196 256z"/>
<path style="fill:#bbe7d7; stroke:none;" d="M377 257L378 258L377 257z"/>
<path style="fill:#a2e0c9; stroke:none;" d="M410 258L411 259L410 258z"/>
<path style="fill:#bbe7d7; stroke:none;" d="M1197 258L1198 259L1197 258M1247 258L1248 259L1247 258M1248 259L1249 260L1248 259z"/>
<path style="fill:#a2e0c9; stroke:none;" d="M1249 260L1250 261L1249 260z"/>
<path style="fill:#bbe7d7; stroke:none;" d="M378 261L379 262L378 261z"/>
<path style="fill:#a2e0c9; stroke:none;" d="M1250 261L1251 262L1250 261M411 262L412 263L411 262z"/>
<path style="fill:#bbe7d7; stroke:none;" d="M379 265L380 266L379 265M412 266L413 267L412 266M676 266L676 372L677 372L677 298L676 266M1201 266L1202 267L1201 266z"/>
<path style="fill:#a2e0c9; stroke:none;" d="M1202 268L1203 269L1202 268z"/>
<path style="fill:#bbe7d7; stroke:none;" d="M380 269L381 270L380 269M413 270L414 271L413 270M890 271L890 309L891 309C891 298.089 894.211 281.036 890 271M1204 271L1205 272L1204 271z"/>
<path style="fill:#a2e0c9; stroke:none;" d="M381 273L382 274L381 273M1262 273L1263 274L1262 273z"/>
<path style="fill:#bbe7d7; stroke:none;" d="M414 274L415 275L414 274M1206 274L1207 275L1206 274z"/>
<path style="fill:#a2e0c9; stroke:none;" d="M1263 274L1264 275L1263 274z"/>
<path style="fill:#bbe7d7; stroke:none;" d="M1264 275L1265 276L1264 275M1265 276L1266 277L1265 276z"/>
<path style="fill:#a2e0c9; stroke:none;" d="M382 277L383 278L382 277M1208 277L1209 278L1208 277z"/>
<path style="fill:#bbe7d7; stroke:none;" d="M415 278L416 279L415 278M1209 278L1210 279L1209 278M383 280L384 281L383 280z"/>
<path style="fill:#a2e0c9; stroke:none;" d="M383 281L384 282L383 281M1271 281L1272 282L1271 281z"/>
<path style="fill:#bbe7d7; stroke:none;" d="M416 282L417 283L416 282z"/>
<path style="fill:#a2e0c9; stroke:none;" d="M1212 282L1213 283L1212 282M1272 282L1273 283L1272 282z"/>
<path style="fill:#bbe7d7; stroke:none;" d="M1213 283L1214 284L1213 283M1273 283L1274 284L1273 283M384 284L385 285L384 284M1214 284L1215 285L1214 284M1274 284L1275 285L1274 284M1275 285L1276 286L1275 285M417 286L418 287L417 286M385 288L386 289L385 288M418 290L419 291L418 290z"/>
<path style="fill:#a2e0c9; stroke:none;" d="M1220 291L1221 292L1220 291z"/>
<path style="fill:#bbe7d7; stroke:none;" d="M386 292L387 293L386 292z"/>
<path style="fill:#a2e0c9; stroke:none;" d="M1221 292L1222 293L1221 292M419 293L420 294L419 293M1222 293L1223 294L1222 293z"/>
<path style="fill:#bbe7d7; stroke:none;" d="M419 294L420 295L419 294z"/>
<path style="fill:#a2e0c9; stroke:none;" d="M1223 294L1224 295L1223 294z"/>
<path style="fill:#bbe7d7; stroke:none;" d="M1224 295L1225 296L1224 295M387 296L388 297L387 296M1225 296L1226 297L1225 296z"/>
<path style="fill:#a2e0c9; stroke:none;" d="M420 297L421 298L420 297M1226 297L1227 298L1226 297M1227 298L1228 299L1227 298M1228 299L1229 300L1228 299z"/>
<path style="fill:#bbe7d7; stroke:none;" d="M1289 299L1290 300L1289 299z"/>
<path style="fill:#a2e0c9; stroke:none;" d="M388 300L389 301L388 300z"/>
<path style="fill:#bbe7d7; stroke:none;" d="M1290 300L1291 301L1290 300z"/>
<path style="fill:#a2e0c9; stroke:none;" d="M421 301L422 302L421 301M1291 301L1292 302L1291 301M389 304L390 305L389 304M422 305L423 306L422 305z"/>
<path style="fill:#bbe7d7; stroke:none;" d="M1295 306L1296 307L1295 306M1237 307L1238 308L1237 307z"/>
<path style="fill:#a2e0c9; stroke:none;" d="M1296 307L1297 308L1296 307M390 308L391 309L390 308z"/>
<path style="fill:#bbe7d7; stroke:none;" d="M1238 308L1239 309L1238 308z"/>
<path style="fill:#a2e0c9; stroke:none;" d="M423 309L424 310L423 309z"/>
<path style="fill:#bbe7d7; stroke:none;" d="M832 309L832 392L833 392L833 335L832 309M1239 309L1240 310L1239 309z"/>
<path style="fill:#a2e0c9; stroke:none;" d="M1240 310L1241 311L1240 310z"/>
<path style="fill:#bbe7d7; stroke:none;" d="M1298 310L1299 311L1298 310M391 311L392 312L391 311z"/>
<path style="fill:#a2e0c9; stroke:none;" d="M1299 311L1300 312L1299 311z"/>
<path style="fill:#bbe7d7; stroke:none;" d="M424 313L425 314L424 313z"/>
<path style="fill:#a2e0c9; stroke:none;" d="M1301 314L1302 315L1301 314z"/>
<path style="fill:#bbe7d7; stroke:none;" d="M392 315L393 316L392 315M425 317L426 318L425 317M393 319L394 320L393 319M1304 319L1305 320L1304 319M426 321L427 322L426 321M1305 321L1306 322L1305 321M394 323L395 324L394 323M1306 323L1307 324L1306 323M1307 325L1308 326L1307 325M395 327L396 328L395 327M1308 327L1309 328L1308 327z"/>
<path style="fill:#a2e0c9; stroke:none;" d="M1258 328L1259 329L1258 328z"/>
<path style="fill:#bbe7d7; stroke:none;" d="M1259 329L1260 330L1259 329z"/>
<path style="fill:#a2e0c9; stroke:none;" d="M396 331L397 332L396 331M1310 332L1311 333L1310 332z"/>
<path style="fill:#bbe7d7; stroke:none;" d="M1262 333L1263 334L1262 333z"/>
<path style="fill:#a2e0c9; stroke:none;" d="M397 335L398 336L397 335M1311 335L1312 336L1311 335M1264 336L1265 337L1264 336M398 339L399 340L398 339z"/>
<path style="fill:#bbe7d7; stroke:none;" d="M1266 339L1267 340L1266 339M1312 339L1313 340L1312 339M1267 341L1268 342L1267 341M399 342L400 343L399 342M1268 343L1269 344L1268 343z"/>
<path style="fill:#a2e0c9; stroke:none;" d="M1313 343L1314 344L1313 343z"/>
<path style="fill:#bbe7d7; stroke:none;" d="M1313 344L1314 345L1313 344M1269 345L1270 346L1269 345M400 346L401 347L400 346M1270 348L1271 349L1270 348M1314.33 349.667L1314.67 350.333L1314.33 349.667M401 350L402 351L401 350M1271 351L1272 352L1271 351M1229 353L1229 371L1230 371L1229 353M402 354L403 355L402 354M1272 356L1273 357L1272 356M403 358L404 359L403 358z"/>
<path style="fill:#a2e0c9; stroke:none;" d="M1315 359L1315 363L1316 363L1315 359M404 362L405 363L404 362z"/>
<path style="fill:#bbe7d7; stroke:none;" d="M1273 362L1273 365L1274 365L1273 362M1315 363L1315 368L1316 368L1315 363z"/>
<path style="fill:#a2e0c9; stroke:none;" d="M1273.33 365.667L1273.67 366.333L1273.33 365.667M405 366L406 367L405 366M1315 368L1315 371L1316 371L1315 368z"/>
<path style="fill:#bbe7d7; stroke:none;" d="M406 369L407 370L406 369z"/>
<path style="fill:#a2e0c9; stroke:none;" d="M406 370L407 371L406 370M1273 372L1274 373L1273 372z"/>
<path style="fill:#bbe7d7; stroke:none;" d="M407 373L408 374L407 373M1273 373L1273 376L1274 376L1273 373M1190.33 375.667L1190.67 376.333L1190.33 375.667z"/>
<path style="fill:#a2e0c9; stroke:none;" d="M719 376L720 377L719 376z"/>
<path style="fill:#bbe7d7; stroke:none;" d="M408 377L409 378L408 377M635.333 377.667L635.667 378.333L635.333 377.667M719 377L720 378L719 377z"/>
<path style="fill:#a2e0c9; stroke:none;" d="M1190 377L1191 378L1190 377M677 378L678 379L677 378z"/>
<path style="fill:#bbe7d7; stroke:none;" d="M759.333 378.667L759.667 379.333L759.333 378.667z"/>
<path style="fill:#a2e0c9; stroke:none;" d="M1230 378L1231 379L1230 378M635 379L636 380L635 379z"/>
<path style="fill:#bbe7d7; stroke:none;" d="M677 379L678 380L677 379z"/>
<path style="fill:#a2e0c9; stroke:none;" d="M759 380L760 381L759 380z"/>
<path style="fill:#bbe7d7; stroke:none;" d="M1272 380L1273 381L1272 380M1314.33 380.667L1314.67 381.333L1314.33 380.667M409 381L410 382L409 381M718 381L719 382L718 381z"/>
<path style="fill:#a2e0c9; stroke:none;" d="M678 382L679 383L678 382z"/>
<path style="fill:#bbe7d7; stroke:none;" d="M1231 382L1232 383L1231 382M1191.33 383.667L1191.67 384.333L1191.33 383.667M1271 383L1272 384L1271 383M717 384L718 385L717 384M410 385L411 386L410 385M636 385L637 386L636 385M679 385L680 386L679 385M758 385L759 386L758 385M1270 385L1271 386L1270 385M716 386L717 387L716 386z"/>
<path style="fill:#a2e0c9; stroke:none;" d="M758 386L759 387L758 386M1233 386L1234 387L1233 386z"/>
<path style="fill:#bbe7d7; stroke:none;" d="M1313 386L1314 387L1313 386M1269 387L1270 388L1269 387z"/>
<path style="fill:#a2e0c9; stroke:none;" d="M1313 387L1314 388L1313 387z"/>
<path style="fill:#bbe7d7; stroke:none;" d="M681 388L682 389L681 388z"/>
<path style="fill:#a2e0c9; stroke:none;" d="M411 389L412 390L411 389M682 389L683 390L682 389z"/>
<path style="fill:#bbe7d7; stroke:none;" d="M714 389L715 390L714 389M1192 389L1193 390L1192 389M1235 389L1236 390L1235 389M637 390L638 391L637 390M683 390L684 391L683 390M757 390L758 391L757 390M1236 390L1237 391L1236 390M1312 390L1313 391L1312 390M684 391L685 392L684 391M1033 391L1034 392L1033 391z"/>
<path style="fill:#a2e0c9; stroke:none;" d="M1265 391L1266 392L1265 391M710 392L711 393L710 392z"/>
<path style="fill:#bbe7d7; stroke:none;" d="M905 392L905 430L906 430C906 419.089 909.211 402.036 905 392z"/>
<path style="fill:#a2e0c9; stroke:none;" d="M412 393L413 394L412 393z"/>
<path style="fill:#bbe7d7; stroke:none;" d="M638 393L639 394L638 393z"/>
<path style="fill:#a2e0c9; stroke:none;" d="M708 393L709 394L708 393M1193 393L1194 394L1193 393z"/>
<path style="fill:#bbe7d7; stroke:none;" d="M1262 393L1263 394L1262 393z"/>
<path style="fill:#a2e0c9; stroke:none;" d="M638 394L639 395L638 394z"/>
<path style="fill:#bbe7d7; stroke:none;" d="M690 394L691 395L690 394M706 394L707 395L706 394z"/>
<path style="fill:#a2e0c9; stroke:none;" d="M756 394L757 395L756 394z"/>
<path style="fill:#bbe7d7; stroke:none;" d="M1243 394L1244 395L1243 394M1259 394L1260 395L1259 394M1311 394L1312 395L1311 394M695.667 395.333L696.333 395.667L695.667 395.333z"/>
<path style="fill:#a2e0c9; stroke:none;" d="M697 395L698 396L697 395M699 395L700 396L699 395z"/>
<path style="fill:#bbe7d7; stroke:none;" d="M700.667 395.333L701.333 395.667L700.667 395.333M1248.67 395.333L1249.33 395.667L1248.67 395.333z"/>
<path style="fill:#a2e0c9; stroke:none;" d="M1250 395L1251 396L1250 395M1252 395L1253 396L1252 395z"/>
<path style="fill:#bbe7d7; stroke:none;" d="M1253.67 395.333L1254.33 395.667L1253.67 395.333M1194 396L1195 397L1194 396z"/>
<path style="fill:#a2e0c9; stroke:none;" d="M413 397L414 398L413 397M755 397L756 398L755 397M1310 397L1311 398L1310 397z"/>
<path style="fill:#bbe7d7; stroke:none;" d="M640 399L641 400L640 399M754 399L755 400L754 399z"/>
<path style="fill:#a2e0c9; stroke:none;" d="M1195 399L1196 400L1195 399z"/>
<path style="fill:#bbe7d7; stroke:none;" d="M414 400L415 401L414 400M1196 401L1197 402L1196 401M1197 403L1198 404L1197 403M415 404L416 405L415 404M1198 405L1199 406L1198 405M644 407L645 408L644 407M1199 407L1200 408L1199 407M1305 407L1306 408L1305 407M416 408L417 409L416 408z"/>
<path style="fill:#a2e0c9; stroke:none;" d="M749 409L750 410L749 409M1304 409L1305 410L1304 409z"/>
<path style="fill:#bbe7d7; stroke:none;" d="M1201 410L1202 411L1201 410M417 412L418 413L417 412z"/>
<path style="fill:#a2e0c9; stroke:none;" d="M648 413L649 414L648 413z"/>
<path style="fill:#bbe7d7; stroke:none;" d="M746 413L747 414L746 413z"/>
<path style="fill:#a2e0c9; stroke:none;" d="M1203 413L1204 414L1203 413M1301 413L1302 414L1301 413z"/>
<path style="fill:#bbe7d7; stroke:none;" d="M649 414L650 415L649 414M745 414L746 415L745 414M1204 414L1205 415L1204 414M1300 414L1301 415L1300 414M418 416L419 417L418 416z"/>
<path style="fill:#a2e0c9; stroke:none;" d="M419 420L420 421L419 420z"/>
<path style="fill:#bbe7d7; stroke:none;" d="M655 420L656 421L655 420M1294 420L1295 421L1294 420z"/>
<path style="fill:#a2e0c9; stroke:none;" d="M656 421L657 422L656 421z"/>
<path style="fill:#bbe7d7; stroke:none;" d="M738 421L739 422L738 421M1211 421L1212 422L1211 421M659 423L660 424L659 423M1290 423L1291 424L1290 423z"/>
<path style="fill:#a2e0c9; stroke:none;" d="M420 424L421 425L420 424M1215 424L1216 425L1215 424M662 425L663 426L662 425z"/>
<path style="fill:#bbe7d7; stroke:none;" d="M732 425L733 426L732 425M1217 425L1218 426L1217 425M664 426L665 427L664 426M730 426L731 427L730 426M1285 426L1286 427L1285 426M666 427L667 428L666 427M728 427L729 428L728 427z"/>
<path style="fill:#a2e0c9; stroke:none;" d="M1283 427L1284 428L1283 427M421 428L422 429L421 428M668 428L669 429L668 428M726 428L727 429L726 428z"/>
<path style="fill:#bbe7d7; stroke:none;" d="M1223 428L1224 429L1223 428M671 429L672 430L671 429M723 429L724 430L723 429z"/>
<path style="fill:#a2e0c9; stroke:none;" d="M1225 429L1226 430L1225 429z"/>
<path style="fill:#bbe7d7; stroke:none;" d="M1278 429L1279 430L1278 429M674 430L675 431L674 430M720 430L721 431L720 430M1229 430L1230 431L1229 430z"/>
<path style="fill:#a2e0c9; stroke:none;" d="M1275 430L1276 431L1275 430z"/>
<path style="fill:#bbe7d7; stroke:none;" d="M678 431L679 432L678 431M716 431L717 432L716 431z"/>
<path style="fill:#a2e0c9; stroke:none;" d="M717 431L718 432L717 431M1232 431L1233 432L1232 431z"/>
<path style="fill:#bbe7d7; stroke:none;" d="M1233 431L1234 432L1233 431M1271 431L1272 432L1271 431z"/>
<path style="fill:#a2e0c9; stroke:none;" d="M682 432L683 433L682 432z"/>
<path style="fill:#bbe7d7; stroke:none;" d="M683 432L684 433L683 432M711 432L712 433L711 432z"/>
<path style="fill:#a2e0c9; stroke:none;" d="M712 432L713 433L712 432z"/>
<path style="fill:#bbe7d7; stroke:none;" d="M1237.67 432.333L1238.33 432.667L1237.67 432.333M1265.67 432.333L1266.33 432.667L1265.67 432.333z"/>
<path style="fill:#a2e0c9; stroke:none;" d="M690.667 433.333L691.333 433.667L690.667 433.333z"/>
<path style="fill:#bbe7d7; stroke:none;" d="M692 433L692 434L703 434L692 433z"/>
<path style="fill:#a2e0c9; stroke:none;" d="M703.667 433.333L704.333 433.667L703.667 433.333M1244 433L1244 434L1247 434L1244 433z"/>
<path style="fill:#bbe7d7; stroke:none;" d="M1247 433L1247 434L1257 434L1247 433z"/>
<path style="fill:#a2e0c9; stroke:none;" d="M1257 433L1257 434L1260 434L1257 433z"/>
<path style="fill:#010101; stroke:none;" d="M0 566L0 596L30 596L30 595C13.4278 592.146 7.31411 579.017 0 566M1919 566C1916.61 579.902 1903.9 592.606 1890 595L1890 596L1920 596L1919 566z"/>
</svg>
