<?xml version="1.0" standalone="yes"?>
<svg xmlns="http://www.w3.org/2000/svg" width="1920" height="596">
<path style="fill:#010101; stroke:none;" d="M0 0L0 33L1 33C3.38043 16.8815 16.8815 3.38043 33 1L0 0z"/>
<path style="fill:#0195ff; stroke:none;" d="M33 0.464539C17.145 3.31818 5.22415 14.4813 1.15586 30C-1.55611 40.345 0 52.3687 0 63L0 124L0 476L0 541C0 561.829 0.990396 582.869 23 592.651C36.6904 598.736 54.3803 596 69 596L162 596L490 596L1482 596L1770 596L1853 596C1866.82 596 1882.92 598.325 1896 593.07C1908.75 587.951 1917.18 576.314 1919.54 563C1921.4 552.473 1920 540.676 1920 530L1920 466L1920 115L1920 59C1920 34.6503 1919.17 9.36749 1891 1.42828C1872.36 -3.82465 1848.31 0 1829 0L1701 0L1285 0L437 0L165 0L77 0C62.858 0 46.9258 -2.04187 33 0.464539z"/>
<path style="fill:#010101; stroke:none;" d="M1887 0L1887 1C1903.01 3.36475 1916.82 16.8918 1919 33L1920 33L1920 0L1887 0z"/>
<path style="fill:#5fbcff; stroke:none;" d="M277 156L277 425L278 425L278 235L278 181L277 156z"/>
<path style="fill:#ffffff; stroke:none;" d="M278 156L278 425L315 425L315 229L317 229L329.849 281L353.873 374L363.127 410L367.728 423.972L380 425L410 425L410 156L373 156L373 317L371 317L361.373 277L340.884 197L333.627 168L329.487 157.028L315 156L278 156z"/>
<path style="fill:#addcff; stroke:none;" d="M330 156L331 157L330 156z"/>
<path style="fill:#5fbcff; stroke:none;" d="M372 156L372 264L372 317L373 317L373 204C373 190.485 377.206 168.407 372 156M410 156L410 425L411 425L411 235L411 181L410 156M441 156L441 425L442 425L442 235L442 181L441 156z"/>
<path style="fill:#ffffff; stroke:none;" d="M442 156L442 425L557 425L557 387L484 387L484 304L542 304L542 266L484 266L484 194L557 194L557 156L442 156z"/>
<path style="fill:#addcff; stroke:none;" d="M579 156L579 298L580 298L580 199C580 186.794 583.707 167.218 579 156z"/>
<path style="fill:#ffffff; stroke:none;" d="M580 156L580 310C580 335.587 575.861 365.331 583.746 390C596.487 429.86 656.577 442.48 686.911 413.816C708.136 393.758 705 362.472 705 336L705 156L665 156L665 336C665 353.94 670.963 389.925 644 390.74C616.104 391.583 621 355.204 621 337C621 276.617 622 216.338 622 156L580 156z"/>
<path style="fill:#5fbcff; stroke:none;" d="M664 156L664 370L665 370L665 219L665 176L664 156M705 156L705 369L706 369L706 219L706 176L705 156z"/>
<path style="fill:#addcff; stroke:none;" d="M735 156L735 425L736 425L736 235L736 181L735 156z"/>
<path style="fill:#ffffff; stroke:none;" d="M736 156L736 425L850 425L850 387L797 387L778.603 385.397L777 364L777 304L835 304L835 266L795 266C790.715 266 783.034 267.452 779.318 264.972C775.42 262.371 777 254.011 777 250L777 209C777 205.146 775.563 197.534 779.318 195.028C783.739 192.077 793.852 194 799 194L850 194L850 156L736 156z"/>
<path style="fill:#addcff; stroke:none;" d="M850 156L850 194L778 194L778 195L851 195C851 183.828 854.311 166.274 850 156z"/>
<path style="fill:#5fbcff; stroke:none;" d="M874 156L874 425L875 425L875 235L875 181L874 156z"/>
<path style="fill:#ffffff; stroke:none;" d="M875 156L875 425L917 425L917 310C927.218 310 940.356 307.53 948.985 314.394C959.466 322.732 958 337.051 958 349C958 374.36 956.326 400.192 962 425L1005 425C993.06 394.004 1003.08 357.447 998.711 325C996.634 309.587 989.002 292.033 972 289C979.348 281.55 987.886 277.887 993.11 268C997.616 259.47 998.276 250.358 999.17 241C1001.67 214.795 1001.35 178.82 975 164.313C959.873 155.987 942.662 157 926 157C908.942 157 892.032 156 875 156z"/>
<path style="fill:#addcff; stroke:none;" d="M895 156L895 157L945 157C932.11 151.591 909.049 156 895 156z"/>
<path style="fill:#5fbcff; stroke:none;" d="M945 156L945 157L949 157L945 156M1079 156L1079 195L1080 195C1080 183.828 1083.31 166.274 1079 156z"/>
<path style="fill:#ffffff; stroke:none;" d="M1080 156L1080 194L1124 194L1124 425L1166 425L1166 194L1210 194L1210 156L1080 156z"/>
<path style="fill:#5fbcff; stroke:none;" d="M1210 156L1210 195L1211 195C1211 183.828 1214.31 166.274 1210 156M1230 156L1230 425L1231 425L1231 235L1231 181L1230 156z"/>
<path style="fill:#ffffff; stroke:none;" d="M1231 156L1231 425L1346 425L1346 387L1273 387L1273 304L1331 304L1331 266L1273 266L1273 194L1346 194L1346 156L1231 156z"/>
<path style="fill:#5fbcff; stroke:none;" d="M1361 156L1362 157L1361 156z"/>
<path style="fill:#ffffff; stroke:none;" d="M1362 156C1369 186.248 1382.55 216.906 1393.42 246C1397.76 257.586 1408.05 275.63 1407.49 288C1407.01 298.603 1399.82 311.003 1396.34 321C1388.92 342.371 1381.5 363.809 1373.58 385C1368.86 397.615 1361.99 411.69 1360 425L1387 425L1398.3 423.972L1408.33 398L1431 331C1443.77 359.803 1454.9 394.31 1462 425L1506 425C1504.4 414.134 1498.94 403.359 1495.34 393C1487.58 370.633 1479.87 348.178 1471.58 326C1467.4 314.844 1459.1 299.891 1458.51 288C1457.93 276.199 1467.9 259.082 1471.95 248C1482.87 218.111 1496.83 186.991 1504 156L1477 156L1465.51 157.028L1457 179L1436 243L1428 223L1413.33 178L1405.3 157.028L1393 156L1362 156z"/>
<path style="fill:#5fbcff; stroke:none;" d="M1406 156L1407 157L1406 156z"/>
<path style="fill:#addcff; stroke:none;" d="M1464 156L1465 157L1464 156z"/>
<path style="fill:#5fbcff; stroke:none;" d="M1504 156L1505 157L1504 156M1515 156L1515 195L1516 195C1516 183.828 1519.31 166.274 1515 156z"/>
<path style="fill:#ffffff; stroke:none;" d="M1516 156L1516 194L1560 194L1560 425L1602 425L1602 194L1646 194L1646 156L1516 156z"/>
<path style="fill:#addcff; stroke:none;" d="M952.667 157.333L953.333 157.667L952.667 157.333z"/>
<path style="fill:#5fbcff; stroke:none;" d="M954.667 157.333L955.333 157.667L954.667 157.333z"/>
<path style="fill:#addcff; stroke:none;" d="M1406 157L1407 158L1406 157z"/>
<path style="fill:#5fbcff; stroke:none;" d="M331 158L332 159L331 158z"/>
<path style="fill:#addcff; stroke:none;" d="M958.667 158.333L959.333 158.667L958.667 158.333z"/>
<path style="fill:#5fbcff; stroke:none;" d="M960 158L961 159L960 158z"/>
<path style="fill:#addcff; stroke:none;" d="M1362 158L1363 159L1362 158z"/>
<path style="fill:#5fbcff; stroke:none;" d="M1463 158L1464 159L1463 158z"/>
<path style="fill:#addcff; stroke:none;" d="M1503 158L1504 159L1503 158M331 159L332 160L331 159M962.667 159.333L963.333 159.667L962.667 159.333z"/>
<path style="fill:#5fbcff; stroke:none;" d="M964 159L965 160L964 159M1362 159L1363 160L1362 159M1407 159L1408 160L1407 159z"/>
<path style="fill:#addcff; stroke:none;" d="M1463 159L1464 160L1463 159z"/>
<path style="fill:#5fbcff; stroke:none;" d="M1503 159L1504 160L1503 159z"/>
<path style="fill:#addcff; stroke:none;" d="M966 160L967 161L966 160z"/>
<path style="fill:#5fbcff; stroke:none;" d="M967 160L968 161L967 160z"/>
<path style="fill:#addcff; stroke:none;" d="M1407 160L1408 161L1407 160z"/>
<path style="fill:#5fbcff; stroke:none;" d="M969 161L970 162L969 161z"/>
<path style="fill:#addcff; stroke:none;" d="M1363 161L1364 162L1363 161z"/>
<path style="fill:#5fbcff; stroke:none;" d="M1462 161L1463 162L1462 161z"/>
<path style="fill:#addcff; stroke:none;" d="M1502 161L1503 162L1502 161z"/>
<path style="fill:#5fbcff; stroke:none;" d="M332 162L333 163L332 162z"/>
<path style="fill:#addcff; stroke:none;" d="M971 162L972 163L971 162z"/>
<path style="fill:#5fbcff; stroke:none;" d="M972 162L973 163L972 162M1363 162L1364 163L1363 162M1408 162L1409 163L1408 162z"/>
<path style="fill:#addcff; stroke:none;" d="M1462 162L1463 163L1462 162z"/>
<path style="fill:#5fbcff; stroke:none;" d="M1502 162L1503 163L1502 162z"/>
<path style="fill:#addcff; stroke:none;" d="M332 163L333 164L332 163M973 163L974 164L973 163z"/>
<path style="fill:#5fbcff; stroke:none;" d="M974 163L975 164L974 163z"/>
<path style="fill:#addcff; stroke:none;" d="M1408 163L1409 164L1408 163M975 164L976 165L975 164M1364 164L1365 165L1364 164z"/>
<path style="fill:#5fbcff; stroke:none;" d="M1461 164L1462 165L1461 164z"/>
<path style="fill:#addcff; stroke:none;" d="M1501 164L1502 165L1501 164z"/>
<path style="fill:#5fbcff; stroke:none;" d="M977 165L978 166L977 165M1409 165L1410 166L1409 165z"/>
<path style="fill:#addcff; stroke:none;" d="M1461 165L1462 166L1461 165z"/>
<path style="fill:#5fbcff; stroke:none;" d="M1501 165L1502 166L1501 165M333 166L334 167L333 166z"/>
<path style="fill:#addcff; stroke:none;" d="M978 166L979 167L978 166M1409 166L1410 167L1409 166M333 167L334 168L333 167z"/>
<path style="fill:#5fbcff; stroke:none;" d="M980 167L981 168L980 167M1365 167L1366 168L1365 167M1460 167L1461 168L1460 167z"/>
<path style="fill:#addcff; stroke:none;" d="M1500 167L1501 168L1500 167M981 168L982 169L981 168z"/>
<path style="fill:#5fbcff; stroke:none;" d="M1410 168L1411 169L1410 168z"/>
<path style="fill:#addcff; stroke:none;" d="M1460 168L1461 169L1460 168M982 169L983 170L982 169M1410 169L1411 170L1410 169z"/>
<path style="fill:#5fbcff; stroke:none;" d="M334 170L335 171L334 170z"/>
<path style="fill:#addcff; stroke:none;" d="M983 170L984 171L983 170z"/>
<path style="fill:#5fbcff; stroke:none;" d="M1366 170L1367 171L1366 170M1459 170L1460 171L1459 170M1499 170L1500 171L1499 170z"/>
<path style="fill:#addcff; stroke:none;" d="M334 171L335 172L334 171z"/>
<path style="fill:#5fbcff; stroke:none;" d="M1411 171L1412 172L1411 171z"/>
<path style="fill:#addcff; stroke:none;" d="M1459 171L1460 172L1459 171M985 172L986 173L985 172M1367 172L1368 173L1367 172M1411 172L1412 173L1411 172M1498 172L1499 173L1498 172M986 173L987 174L986 173z"/>
<path style="fill:#5fbcff; stroke:none;" d="M1367 173L1368 174L1367 173M1458 173L1459 174L1458 173M1498 173L1499 174L1498 173M335 174L336 175L335 174z"/>
<path style="fill:#addcff; stroke:none;" d="M987 174L988 175L987 174z"/>
<path style="fill:#5fbcff; stroke:none;" d="M1412 174L1413 175L1412 174z"/>
<path style="fill:#addcff; stroke:none;" d="M1458 174L1459 175L1458 174M335 175L336 176L335 175z"/>
<path style="fill:#5fbcff; stroke:none;" d="M988 175L989 176L988 175z"/>
<path style="fill:#addcff; stroke:none;" d="M1368 175L1369 176L1368 175M1412 175L1413 176L1412 175M1497 175L1498 176L1497 175z"/>
<path style="fill:#5fbcff; stroke:none;" d="M989 176L990 177L989 176M1368 176L1369 177L1368 176M1457 176L1458 177L1457 176M1497 176L1498 177L1497 176z"/>
<path style="fill:#addcff; stroke:none;" d="M989 177L990 178L989 177M1457 177L1458 178L1457 177z"/>
<path style="fill:#5fbcff; stroke:none;" d="M336 178L337 179L336 178z"/>
<path style="fill:#addcff; stroke:none;" d="M990 178L991 179L990 178M1369 178L1370 179L1369 178z"/>
<path style="fill:#5fbcff; stroke:none;" d="M1413 178L1414 179L1413 178z"/>
<path style="fill:#addcff; stroke:none;" d="M1496 178L1497 179L1496 178M336 179L337 180L336 179z"/>
<path style="fill:#5fbcff; stroke:none;" d="M991 179L992 180L991 179M1369 179L1370 180L1369 179M1456 179L1457 180L1456 179M1496 179L1497 180L1496 179z"/>
<path style="fill:#addcff; stroke:none;" d="M991 180L992 181L991 180M1456 180L1457 181L1456 180z"/>
<path style="fill:#5fbcff; stroke:none;" d="M992 181L993 182L992 181z"/>
<path style="fill:#addcff; stroke:none;" d="M1370 181L1371 182L1370 181z"/>
<path style="fill:#5fbcff; stroke:none;" d="M1414 181L1415 182L1414 181z"/>
<path style="fill:#addcff; stroke:none;" d="M1495 181L1496 182L1495 181z"/>
<path style="fill:#5fbcff; stroke:none;" d="M337 182L338 183L337 182z"/>
<path style="fill:#addcff; stroke:none;" d="M992 182L993 183L992 182z"/>
<path style="fill:#5fbcff; stroke:none;" d="M1455 182L1456 183L1455 182z"/>
<path style="fill:#addcff; stroke:none;" d="M337 183L338 184L337 183z"/>
<path style="fill:#5fbcff; stroke:none;" d="M993 183L994 184L993 183z"/>
<path style="fill:#addcff; stroke:none;" d="M1455 183L1456 184L1455 183M993 184L994 185L993 184z"/>
<path style="fill:#5fbcff; stroke:none;" d="M1371 184L1372 185L1371 184M1415 184L1416 185L1415 184M1494 184L1495 185L1494 184M338.333 185.667L338.667 186.333L338.333 185.667M994 185L995 186L994 185z"/>
<path style="fill:#addcff; stroke:none;" d="M1415 185L1416 186L1415 185z"/>
<path style="fill:#5fbcff; stroke:none;" d="M1454 185L1455 186L1454 185z"/>
<path style="fill:#addcff; stroke:none;" d="M994 186L995 187L994 186M1372 186L1373 187L1372 186M1454 186L1455 187L1454 186M338 187L339 188L338 187z"/>
<path style="fill:#5fbcff; stroke:none;" d="M1372 187L1373 188L1372 187M1416 187L1417 188L1416 187M1493 187L1494 188L1493 187M995 188L996 189L995 188z"/>
<path style="fill:#addcff; stroke:none;" d="M1416 188L1417 189L1416 188z"/>
<path style="fill:#5fbcff; stroke:none;" d="M1453 188L1454 189L1453 188M339.333 189.667L339.667 190.333L339.333 189.667z"/>
<path style="fill:#addcff; stroke:none;" d="M995 189L996 190L995 189M1373 189L1374 190L1373 189M1453 189L1454 190L1453 189M1492 189L1493 190L1492 189z"/>
<path style="fill:#5fbcff; stroke:none;" d="M1373 190L1374 191L1373 190M1417 190L1418 191L1417 190M1492 190L1493 191L1492 190z"/>
<path style="fill:#addcff; stroke:none;" d="M339 191L340 192L339 191z"/>
<path style="fill:#5fbcff; stroke:none;" d="M996 191L997 192L996 191z"/>
<path style="fill:#addcff; stroke:none;" d="M1417 191L1418 192L1417 191z"/>
<path style="fill:#5fbcff; stroke:none;" d="M1452 191L1453 192L1452 191z"/>
<path style="fill:#addcff; stroke:none;" d="M996 192L997 193L996 192M1374 192L1375 193L1374 192M1452 192L1453 193L1452 192M1491 192L1492 193L1491 192z"/>
<path style="fill:#5fbcff; stroke:none;" d="M340 193L341 194L340 193M1374 193L1375 194L1374 193M1418 193L1419 194L1418 193M1491 193L1492 194L1491 193z"/>
<path style="fill:#addcff; stroke:none;" d="M340.333 194.667L340.667 195.333L340.333 194.667M484 194L484 195L557 195L534 194L484 194M917 194L917 195L939 195L917 194z"/>
<path style="fill:#5fbcff; stroke:none;" d="M997.333 194.667L997.667 195.333L997.333 194.667z"/>
<path style="fill:#addcff; stroke:none;" d="M1080 194L1080 195L1124 195C1112.54 190.19 1092.48 194 1080 194M1166 194L1166 195L1210 195C1198.54 190.19 1178.48 194 1166 194M1273 194L1273 195L1346 195L1323 194L1273 194M1418 194L1419 195L1418 194z"/>
<path style="fill:#5fbcff; stroke:none;" d="M1451 194L1452 195L1451 194z"/>
<path style="fill:#addcff; stroke:none;" d="M1516 194L1516 195L1560 195C1548.54 190.19 1528.48 194 1516 194M1602 194L1602 195L1646 195C1634.54 190.19 1614.48 194 1602 194M777 195L777 265L778 265L778 217L777 195z"/>
<path style="fill:#0195ff; stroke:none;" d="M917 195L917 271C926.97 271 940.561 273.226 948.96 266.581C961.311 256.81 958.737 227.131 956.7 213C955.943 207.754 954.074 202.851 949.956 199.343C941.651 192.27 927.146 195 917 195z"/>
<path style="fill:#5fbcff; stroke:none;" d="M942 195L943 196L942 195z"/>
<path style="fill:#addcff; stroke:none;" d="M943 195L944 196L943 195z"/>
<path style="fill:#5fbcff; stroke:none;" d="M1166 195L1166 425L1167 425L1167 263L1167 217L1166 195z"/>
<path style="fill:#addcff; stroke:none;" d="M1375 195L1376 196L1375 195M1451 195L1452 196L1451 195M1490 195L1491 196L1490 195z"/>
<path style="fill:#5fbcff; stroke:none;" d="M1559 195L1559 425L1560 425L1560 263L1560 216L1559 195z"/>
<path style="fill:#addcff; stroke:none;" d="M946 196L947 197L946 196M997 196L998 197L997 196z"/>
<path style="fill:#5fbcff; stroke:none;" d="M1419 196L1420 197L1419 196M1490 196L1491 197L1490 196M341 197L342 198L341 197M947 197L948 198L947 197z"/>
<path style="fill:#addcff; stroke:none;" d="M948 197L949 198L948 197M1419 197L1420 198L1419 197z"/>
<path style="fill:#5fbcff; stroke:none;" d="M1450 197L1451 198L1450 197z"/>
<path style="fill:#addcff; stroke:none;" d="M341.333 198.667L341.667 199.333L341.333 198.667z"/>
<path style="fill:#5fbcff; stroke:none;" d="M949 198L950 199L949 198z"/>
<path style="fill:#addcff; stroke:none;" d="M1376 198L1377 199L1376 198M1450 198L1451 199L1450 198M1489 198L1490 199L1489 198z"/>
<path style="fill:#5fbcff; stroke:none;" d="M950 199L951 200L950 199M998.333 199.667L998.667 200.333L998.333 199.667M1420 199L1421 200L1420 199M951 200L952 201L951 200z"/>
<path style="fill:#addcff; stroke:none;" d="M1420 200L1421 201L1420 200z"/>
<path style="fill:#5fbcff; stroke:none;" d="M1449 200L1450 201L1449 200M342 201L343 202L342 201M952 201L953 202L952 201z"/>
<path style="fill:#addcff; stroke:none;" d="M998.333 201.667L998.667 202.333L998.333 201.667z"/>
<path style="fill:#5fbcff; stroke:none;" d="M1377 201L1378 202L1377 201z"/>
<path style="fill:#addcff; stroke:none;" d="M1449 201L1450 202L1449 201z"/>
<path style="fill:#5fbcff; stroke:none;" d="M1488 201L1489 202L1488 201z"/>
<path style="fill:#addcff; stroke:none;" d="M342 202L343 203L342 202M953 202L954 203L953 202z"/>
<path style="fill:#5fbcff; stroke:none;" d="M1421 202L1422 203L1421 202z"/>
<path style="fill:#addcff; stroke:none;" d="M1378 203L1379 204L1378 203M1421 203L1422 204L1421 203z"/>
<path style="fill:#5fbcff; stroke:none;" d="M1448 203L1449 204L1448 203z"/>
<path style="fill:#addcff; stroke:none;" d="M1487 203L1488 204L1487 203z"/>
<path style="fill:#5fbcff; stroke:none;" d="M954 204L955 205L954 204M1378 204L1379 205L1378 204z"/>
<path style="fill:#addcff; stroke:none;" d="M1448 204L1449 205L1448 204z"/>
<path style="fill:#5fbcff; stroke:none;" d="M1487 204L1488 205L1487 204M343 205L344 206L343 205M999 205L999 209L1000 209L999 205M1422 205L1423 206L1422 205z"/>
<path style="fill:#addcff; stroke:none;" d="M343 206L344 207L343 206M955 206L956 207L955 206M1379 206L1380 207L1379 206M1422 206L1423 207L1422 206z"/>
<path style="fill:#5fbcff; stroke:none;" d="M1447 206L1448 207L1447 206z"/>
<path style="fill:#addcff; stroke:none;" d="M1486 206L1487 207L1486 206z"/>
<path style="fill:#5fbcff; stroke:none;" d="M955 207L956 208L955 207M1379 207L1380 208L1379 207z"/>
<path style="fill:#addcff; stroke:none;" d="M1447 207L1448 208L1447 207z"/>
<path style="fill:#5fbcff; stroke:none;" d="M1486 207L1487 208L1486 207M1423 208L1424 209L1423 208M344 209L345 210L344 209z"/>
<path style="fill:#addcff; stroke:none;" d="M956 209L957 210L956 209M999 209L999 214L1000 214L999 209M1380 209L1381 210L1380 209M1423 209L1424 210L1423 209z"/>
<path style="fill:#5fbcff; stroke:none;" d="M1446 209L1447 210L1446 209z"/>
<path style="fill:#addcff; stroke:none;" d="M1485 209L1486 210L1485 209M344 210L345 211L344 210z"/>
<path style="fill:#5fbcff; stroke:none;" d="M956.333 210.667L956.667 211.333L956.333 210.667M1380 210L1381 211L1380 210z"/>
<path style="fill:#addcff; stroke:none;" d="M1446 210L1447 211L1446 210z"/>
<path style="fill:#5fbcff; stroke:none;" d="M1485 210L1486 211L1485 210M1424 211L1425 212L1424 211z"/>
<path style="fill:#addcff; stroke:none;" d="M1381 212L1382 213L1381 212M1424 212L1425 213L1424 212z"/>
<path style="fill:#5fbcff; stroke:none;" d="M1445 212L1446 213L1445 212z"/>
<path style="fill:#addcff; stroke:none;" d="M1484 212L1485 213L1484 212z"/>
<path style="fill:#5fbcff; stroke:none;" d="M345 213L346 214L345 213z"/>
<path style="fill:#addcff; stroke:none;" d="M1445 213L1446 214L1445 213z"/>
<path style="fill:#5fbcff; stroke:none;" d="M1484 213L1485 214L1484 213z"/>
<path style="fill:#addcff; stroke:none;" d="M345 214L346 215L345 214M621 214L621 368L622 368L622 260C622 247.009 626.007 225.932 621 214M957 214L958 215L957 214z"/>
<path style="fill:#5fbcff; stroke:none;" d="M1425 214L1426 215L1425 214M1382 215L1383 216L1382 215z"/>
<path style="fill:#addcff; stroke:none;" d="M1425 215L1426 216L1425 215z"/>
<path style="fill:#5fbcff; stroke:none;" d="M1444 215L1445 216L1444 215M1483 215L1484 216L1483 215z"/>
<path style="fill:#addcff; stroke:none;" d="M957 216L958 217L957 216z"/>
<path style="fill:#5fbcff; stroke:none;" d="M346 217L347 218L346 217M957 217L957 248L958 248L957 217z"/>
<path style="fill:#addcff; stroke:none;" d="M1383 217L1384 218L1383 217z"/>
<path style="fill:#5fbcff; stroke:none;" d="M1426 217L1427 218L1426 217z"/>
<path style="fill:#addcff; stroke:none;" d="M346 218L347 219L346 218z"/>
<path style="fill:#5fbcff; stroke:none;" d="M1383 218L1384 219L1383 218z"/>
<path style="fill:#addcff; stroke:none;" d="M1426 218L1427 219L1426 218z"/>
<path style="fill:#5fbcff; stroke:none;" d="M1443 218L1444 219L1443 218M1482 218L1483 219L1482 218z"/>
<path style="fill:#addcff; stroke:none;" d="M1384 220L1385 221L1384 220z"/>
<path style="fill:#5fbcff; stroke:none;" d="M1427 220L1428 221L1427 220z"/>
<path style="fill:#addcff; stroke:none;" d="M1481 220L1482 221L1481 220z"/>
<path style="fill:#5fbcff; stroke:none;" d="M347 221L348 222L347 221M1384 221L1385 222L1384 221z"/>
<path style="fill:#addcff; stroke:none;" d="M1427 221L1428 222L1427 221z"/>
<path style="fill:#5fbcff; stroke:none;" d="M1442 221L1443 222L1442 221M1481 221L1482 222L1481 221z"/>
<path style="fill:#addcff; stroke:none;" d="M347 222L348 223L347 222M1385 223L1386 224L1385 223z"/>
<path style="fill:#5fbcff; stroke:none;" d="M1428 223L1429 224L1428 223z"/>
<path style="fill:#addcff; stroke:none;" d="M1480 223L1481 224L1480 223z"/>
<path style="fill:#5fbcff; stroke:none;" d="M1385 224L1386 225L1385 224z"/>
<path style="fill:#addcff; stroke:none;" d="M1428 224L1429 225L1428 224z"/>
<path style="fill:#5fbcff; stroke:none;" d="M1441 224L1442 225L1441 224M1480 224L1481 225L1480 224M348 225L349 226L348 225z"/>
<path style="fill:#addcff; stroke:none;" d="M348 226L349 227L348 226M1386 226L1387 227L1386 226z"/>
<path style="fill:#5fbcff; stroke:none;" d="M1429 226L1430 227L1429 226z"/>
<path style="fill:#addcff; stroke:none;" d="M1479 226L1480 227L1479 226z"/>
<path style="fill:#5fbcff; stroke:none;" d="M1386 227L1387 228L1386 227z"/>
<path style="fill:#addcff; stroke:none;" d="M1429 227L1430 228L1429 227M1440 227L1441 228L1440 227z"/>
<path style="fill:#5fbcff; stroke:none;" d="M1479 227L1480 228L1479 227M349.333 228.667L349.667 229.333L349.333 228.667M315 229L315 425L316 425L316 282L316 244L315 229z"/>
<path style="fill:#addcff; stroke:none;" d="M316 229L317 230L316 229M1387 229L1388 230L1387 229z"/>
<path style="fill:#5fbcff; stroke:none;" d="M1430 229L1431 230L1430 229z"/>
<path style="fill:#addcff; stroke:none;" d="M1478 229L1479 230L1478 229M349 230L350 231L349 230M1430 230L1431 231L1430 230M1439 230L1440 231L1439 230z"/>
<path style="fill:#5fbcff; stroke:none;" d="M1478 230L1479 231L1478 230z"/>
<path style="fill:#addcff; stroke:none;" d="M1388 231L1389 232L1388 231z"/>
<path style="fill:#5fbcff; stroke:none;" d="M350.333 232.667L350.667 233.333L350.333 232.667M1388 232L1389 233L1388 232M1438 232L1439 233L1438 232M1477 232L1478 233L1477 232z"/>
<path style="fill:#addcff; stroke:none;" d="M317 233L318 234L317 233z"/>
<path style="fill:#5fbcff; stroke:none;" d="M1431 233L1432 234L1431 233z"/>
<path style="fill:#addcff; stroke:none;" d="M1438 233L1439 234L1438 233z"/>
<path style="fill:#5fbcff; stroke:none;" d="M317 234L318 235L317 234z"/>
<path style="fill:#addcff; stroke:none;" d="M350 234L351 235L350 234M1389 234L1390 235L1389 234M1476 234L1477 235L1476 234z"/>
<path style="fill:#5fbcff; stroke:none;" d="M1389 235L1390 236L1389 235M1437 235L1438 236L1437 235M1476 235L1477 236L1476 235M351.333 236.667L351.667 237.333L351.333 236.667M1432 236L1433 237L1432 236z"/>
<path style="fill:#addcff; stroke:none;" d="M1437 236L1438 237L1437 236M318 237L319 238L318 237M1390 237L1391 238L1390 237M1475 237L1476 238L1475 237z"/>
<path style="fill:#5fbcff; stroke:none;" d="M318 238L319 239L318 238z"/>
<path style="fill:#addcff; stroke:none;" d="M351 238L352 239L351 238M999 238L999 244L1000 244L999 238z"/>
<path style="fill:#5fbcff; stroke:none;" d="M1390 238L1391 239L1390 238M1436 238L1437 239L1436 238M1475 238L1476 239L1475 238M1433 239L1434 240L1433 239z"/>
<path style="fill:#addcff; stroke:none;" d="M1436 239L1437 240L1436 239z"/>
<path style="fill:#5fbcff; stroke:none;" d="M352 240L353 241L352 240z"/>
<path style="fill:#addcff; stroke:none;" d="M1391 240L1392 241L1391 240M1433 240L1434 241L1433 240M1474 240L1475 241L1474 240M319 241L320 242L319 241M352.333 241.667L352.667 242.333L352.333 241.667z"/>
<path style="fill:#5fbcff; stroke:none;" d="M1391 241L1392 242L1391 241M1435 241L1434 243L1435 241M1474 241L1475 242L1474 241M319 242L320 243L319 242z"/>
<path style="fill:#addcff; stroke:none;" d="M1435 242L1436 243L1435 242M1392 243L1393 244L1392 243M1473 243L1474 244L1473 243z"/>
<path style="fill:#5fbcff; stroke:none;" d="M353 244L354 245L353 244M999 244L999 247L1000 247L999 244M1392 244L1393 245L1392 244M1473 244L1474 245L1473 244z"/>
<path style="fill:#addcff; stroke:none;" d="M320 245L321 246L320 245M353 245L354 246L353 245z"/>
<path style="fill:#5fbcff; stroke:none;" d="M320 246L321 247L320 246M1393 246L1394 247L1393 246z"/>
<path style="fill:#addcff; stroke:none;" d="M1472 246L1473 247L1472 246z"/>
<path style="fill:#5fbcff; stroke:none;" d="M1472 247L1473 248L1472 247M354 248L355 249L354 248z"/>
<path style="fill:#addcff; stroke:none;" d="M957 248L957 251L958 251L957 248M1394 248L1395 249L1394 248M321 249L322 250L321 249M354 249L355 250L354 249z"/>
<path style="fill:#5fbcff; stroke:none;" d="M1394 249L1395 250L1394 249M1471 249L1472 250L1471 249M321 250L322 251L321 250z"/>
<path style="fill:#addcff; stroke:none;" d="M998.333 250.667L998.667 251.333L998.333 250.667M1395 251L1396 252L1395 251M1470 251L1471 252L1470 251M322.333 252.667L322.667 253.333L322.333 252.667z"/>
<path style="fill:#5fbcff; stroke:none;" d="M355 252L356 253L355 252M998.333 252.667L998.667 253.333L998.333 252.667M1395 252L1396 253L1395 252M1470 252L1471 253L1470 252z"/>
<path style="fill:#addcff; stroke:none;" d="M355 253L356 254L355 253z"/>
<path style="fill:#5fbcff; stroke:none;" d="M956.333 253.667L956.667 254.333L956.333 253.667M322 254L323 255L322 254z"/>
<path style="fill:#addcff; stroke:none;" d="M1396 254L1397 255L1396 254M1469 254L1470 255L1469 254M956 255L957 256L956 255M997.333 255.667L997.667 256.333L997.333 255.667z"/>
<path style="fill:#5fbcff; stroke:none;" d="M1396 255L1397 256L1396 255M1469 255L1470 256L1469 255z"/>
<path style="fill:#addcff; stroke:none;" d="M323 256L324 257L323 256z"/>
<path style="fill:#5fbcff; stroke:none;" d="M356 256L357 257L356 256M323.333 257.667L323.667 258.333L323.333 257.667z"/>
<path style="fill:#addcff; stroke:none;" d="M356 257L357 258L356 257z"/>
<path style="fill:#5fbcff; stroke:none;" d="M955 257L956 258L955 257M997 257L998 258L997 257z"/>
<path style="fill:#addcff; stroke:none;" d="M1397 257L1398 258L1397 257M1468 257L1469 258L1468 257M955 258L956 259L955 258z"/>
<path style="fill:#5fbcff; stroke:none;" d="M1397 258L1398 259L1397 258M1468 258L1469 259L1468 258z"/>
<path style="fill:#addcff; stroke:none;" d="M996 259L997 260L996 259M324 260L325 261L324 260z"/>
<path style="fill:#5fbcff; stroke:none;" d="M357 260L358 261L357 260z"/>
<path style="fill:#addcff; stroke:none;" d="M954 260L955 261L954 260z"/>
<path style="fill:#5fbcff; stroke:none;" d="M996 260L997 261L996 260z"/>
<path style="fill:#addcff; stroke:none;" d="M1398 260L1399 261L1398 260M1467 260L1468 261L1467 260z"/>
<path style="fill:#5fbcff; stroke:none;" d="M324 261L325 262L324 261z"/>
<path style="fill:#addcff; stroke:none;" d="M357 261L358 262L357 261z"/>
<path style="fill:#5fbcff; stroke:none;" d="M953 261L954 262L953 261M1467 261L1468 262L1467 261z"/>
<path style="fill:#addcff; stroke:none;" d="M953 262L954 263L953 262M995 262L996 263L995 262M1399 262L1400 263L1399 262z"/>
<path style="fill:#5fbcff; stroke:none;" d="M952 263L953 264L952 263M995 263L996 264L995 263M1399 263L1400 264L1399 263z"/>
<path style="fill:#addcff; stroke:none;" d="M1466 263L1467 264L1466 263M325 264L326 265L325 264z"/>
<path style="fill:#5fbcff; stroke:none;" d="M358 264L359 265L358 264M951 264L952 265L951 264M1466 264L1467 265L1466 264M325 265L326 266L325 265z"/>
<path style="fill:#addcff; stroke:none;" d="M358 265L359 266L358 265z"/>
<path style="fill:#5fbcff; stroke:none;" d="M484 265L484 266L542 266L523 265L484 265M778 265L778 266L836 266L817 265L778 265M950 265L951 266L950 265z"/>
<path style="fill:#addcff; stroke:none;" d="M994 265L995 266L994 265z"/>
<path style="fill:#5fbcff; stroke:none;" d="M1273 265L1273 266L1331 266L1312 265L1273 265z"/>
<path style="fill:#addcff; stroke:none;" d="M1400 265L1401 266L1400 265M1465 265L1466 266L1465 265M835 266L835 304L836 304C836 293.089 839.211 276.036 835 266M949 266L950 267L949 266z"/>
<path style="fill:#5fbcff; stroke:none;" d="M1400 266L1401 267L1400 266M1465 266L1466 267L1465 266z"/>
<path style="fill:#addcff; stroke:none;" d="M948 267L949 268L948 267M993 267L994 268L993 267M326 268L327 269L326 268z"/>
<path style="fill:#5fbcff; stroke:none;" d="M359 268L360 269L359 268z"/>
<path style="fill:#addcff; stroke:none;" d="M946 268L947 269L946 268M1401 268L1402 269L1401 268M1464 268L1465 269L1464 268z"/>
<path style="fill:#5fbcff; stroke:none;" d="M326 269L327 270L326 269z"/>
<path style="fill:#addcff; stroke:none;" d="M359 269L360 270L359 269z"/>
<path style="fill:#5fbcff; stroke:none;" d="M943 269L944 270L943 269z"/>
<path style="fill:#addcff; stroke:none;" d="M944 269L945 270L944 269z"/>
<path style="fill:#5fbcff; stroke:none;" d="M992 269L993 270L992 269M1401 269L1402 270L1401 269M1464 269L1465 270L1464 269M939.667 270.333L940.333 270.667L939.667 270.333z"/>
<path style="fill:#addcff; stroke:none;" d="M941 270L942 271L941 270M991 270L992 271L991 270M917 271L917 272L936 272L917 271z"/>
<path style="fill:#5fbcff; stroke:none;" d="M991 271L992 272L991 271z"/>
<path style="fill:#addcff; stroke:none;" d="M1402 271L1403 272L1402 271M1463 271L1464 272L1463 271M327 272L328 273L327 272z"/>
<path style="fill:#5fbcff; stroke:none;" d="M360 272L361 273L360 272z"/>
<path style="fill:#addcff; stroke:none;" d="M990 272L991 273L990 272z"/>
<path style="fill:#5fbcff; stroke:none;" d="M1402 272L1403 273L1402 272M1463 272L1464 273L1463 272M327 273L328 274L327 273z"/>
<path style="fill:#addcff; stroke:none;" d="M360 273L361 274L360 273z"/>
<path style="fill:#5fbcff; stroke:none;" d="M989 274L990 275L989 274z"/>
<path style="fill:#addcff; stroke:none;" d="M1403 274L1404 275L1403 274M1462 274L1463 275L1462 274z"/>
<path style="fill:#5fbcff; stroke:none;" d="M361.333 275.667L361.667 276.333L361.333 275.667z"/>
<path style="fill:#addcff; stroke:none;" d="M988 275L989 276L988 275z"/>
<path style="fill:#5fbcff; stroke:none;" d="M1403 275L1404 276L1403 275M1462 275L1463 276L1462 275z"/>
<path style="fill:#addcff; stroke:none;" d="M328 276L329 277L328 276M987 276L988 277L987 276z"/>
<path style="fill:#5fbcff; stroke:none;" d="M328 277L329 278L328 277z"/>
<path style="fill:#addcff; stroke:none;" d="M361 277L362 278L361 277M986 277L987 278L986 277z"/>
<path style="fill:#5fbcff; stroke:none;" d="M1404 277L1405 278L1404 277z"/>
<path style="fill:#addcff; stroke:none;" d="M1461 277L1462 278L1461 277M985 278L986 279L985 278z"/>
<path style="fill:#5fbcff; stroke:none;" d="M1461 278L1462 279L1461 278z"/>
<path style="fill:#addcff; stroke:none;" d="M329.333 279.667L329.667 280.333L329.333 279.667z"/>
<path style="fill:#5fbcff; stroke:none;" d="M362.333 279.667L362.667 280.333L362.333 279.667z"/>
<path style="fill:#addcff; stroke:none;" d="M984 279L985 280L984 279M1405 279L1406 280L1405 279M983 280L984 281L983 280z"/>
<path style="fill:#5fbcff; stroke:none;" d="M1405 280L1406 281L1405 280z"/>
<path style="fill:#addcff; stroke:none;" d="M1460 280L1461 281L1460 280z"/>
<path style="fill:#5fbcff; stroke:none;" d="M329 281L330 282L329 281z"/>
<path style="fill:#addcff; stroke:none;" d="M362 281L363 282L362 281z"/>
<path style="fill:#5fbcff; stroke:none;" d="M982 281L983 282L982 281M1460 281L1461 282L1460 281M981 282L982 283L981 282z"/>
<path style="fill:#addcff; stroke:none;" d="M1406 282L1407 283L1406 282M1459 282L1460 283L1459 282M330 283L331 284L330 283z"/>
<path style="fill:#5fbcff; stroke:none;" d="M363 283L364 284L363 283z"/>
<path style="fill:#addcff; stroke:none;" d="M979 283L980 284L979 283z"/>
<path style="fill:#5fbcff; stroke:none;" d="M1406 283L1407 284L1406 283M1459 283L1460 284L1459 283M330.333 284.667L330.667 285.333L330.333 284.667z"/>
<path style="fill:#addcff; stroke:none;" d="M363.333 284.667L363.667 285.333L363.333 284.667z"/>
<path style="fill:#5fbcff; stroke:none;" d="M978 284L979 285L978 284M976 285L977 286L976 285z"/>
<path style="fill:#addcff; stroke:none;" d="M1407 285L1408 286L1407 285M1458 285L1459 286L1458 285z"/>
<path style="fill:#5fbcff; stroke:none;" d="M974 286L975 287L974 286M1407 286L1408 287L1407 286M1458 286L1459 287L1458 286z"/>
<path style="fill:#addcff; stroke:none;" d="M331 287L332 288L331 287z"/>
<path style="fill:#5fbcff; stroke:none;" d="M364 287L365 288L364 287z"/>
<path style="fill:#addcff; stroke:none;" d="M972.333 287.667L972.667 288.333L972.333 287.667z"/>
<path style="fill:#5fbcff; stroke:none;" d="M331.333 288.667L331.667 289.333L331.333 288.667z"/>
<path style="fill:#addcff; stroke:none;" d="M364.333 288.667L364.667 289.333L364.333 288.667z"/>
<path style="fill:#5fbcff; stroke:none;" d="M973 288L974 289L973 288M1407 288L1408 289L1407 288M1458 288L1459 289L1458 288z"/>
<path style="fill:#addcff; stroke:none;" d="M975 289L976 290L975 289z"/>
<path style="fill:#5fbcff; stroke:none;" d="M976 289L977 290L976 289z"/>
<path style="fill:#addcff; stroke:none;" d="M1407 289L1408 290L1407 289M1458 289L1459 290L1458 289M977 290L978 291L977 290z"/>
<path style="fill:#5fbcff; stroke:none;" d="M978 290L979 291L978 290z"/>
<path style="fill:#addcff; stroke:none;" d="M332 291L333 292L332 291z"/>
<path style="fill:#5fbcff; stroke:none;" d="M365 291L366 292L365 291z"/>
<path style="fill:#addcff; stroke:none;" d="M979 291L980 292L979 291z"/>
<path style="fill:#5fbcff; stroke:none;" d="M1406 291L1407 292L1406 291M1459 291L1460 292L1459 291M332 292L333 293L332 292z"/>
<path style="fill:#addcff; stroke:none;" d="M365 292L366 293L365 292z"/>
<path style="fill:#5fbcff; stroke:none;" d="M981 292L982 293L981 292z"/>
<path style="fill:#addcff; stroke:none;" d="M1406 292L1407 293L1406 292M1459 292L1460 293L1459 292M982 293L983 294L982 293z"/>
<path style="fill:#5fbcff; stroke:none;" d="M983 293L984 294L983 293M984 294L985 295L984 294M1405 294L1406 295L1405 294M1460 294L1461 295L1460 294z"/>
<path style="fill:#addcff; stroke:none;" d="M333 295L334 296L333 295z"/>
<path style="fill:#5fbcff; stroke:none;" d="M366 295L367 296L366 295z"/>
<path style="fill:#addcff; stroke:none;" d="M985 295L986 296L985 295M1405 295L1406 296L1405 295z"/>
<path style="fill:#5fbcff; stroke:none;" d="M333 296L334 297L333 296z"/>
<path style="fill:#addcff; stroke:none;" d="M366 296L367 297L366 296M986 296L987 297L986 296z"/>
<path style="fill:#5fbcff; stroke:none;" d="M1461 296L1462 297L1461 296z"/>
<path style="fill:#addcff; stroke:none;" d="M987 297L988 298L987 297z"/>
<path style="fill:#5fbcff; stroke:none;" d="M1404 297L1405 298L1404 297z"/>
<path style="fill:#addcff; stroke:none;" d="M1461 297L1462 298L1461 297z"/>
<path style="fill:#5fbcff; stroke:none;" d="M579 298L579 370L580 370L580 321L579 298M988 298L989 299L988 298z"/>
<path style="fill:#addcff; stroke:none;" d="M1404 298L1405 299L1404 298M334 299L335 300L334 299z"/>
<path style="fill:#5fbcff; stroke:none;" d="M367 299L368 300L367 299M989 299L990 300L989 299M1462 299L1463 300L1462 299M334 300L335 301L334 300z"/>
<path style="fill:#addcff; stroke:none;" d="M367 300L368 301L367 300z"/>
<path style="fill:#5fbcff; stroke:none;" d="M990 300L991 301L990 300M1403 300L1404 301L1403 300z"/>
<path style="fill:#addcff; stroke:none;" d="M1462 300L1463 301L1462 300M990 301L991 302L990 301z"/>
<path style="fill:#5fbcff; stroke:none;" d="M991 302L992 303L991 302M1402 302L1403 303L1402 302M1463 302L1464 303L1463 302z"/>
<path style="fill:#addcff; stroke:none;" d="M335 303L336 304L335 303z"/>
<path style="fill:#5fbcff; stroke:none;" d="M368 303L369 304L368 303z"/>
<path style="fill:#addcff; stroke:none;" d="M1402 303L1403 304L1402 303M1463 303L1464 304L1463 303z"/>
<path style="fill:#5fbcff; stroke:none;" d="M335 304L336 305L335 304z"/>
<path style="fill:#addcff; stroke:none;" d="M368 304L369 305L368 304M777 304L777 386L778 386L778 329L777 304M992 304L993 305L992 304z"/>
<path style="fill:#5fbcff; stroke:none;" d="M993 305L994 306L993 305M1401 305L1402 306L1401 305M1464 305L1465 306L1464 305z"/>
<path style="fill:#addcff; stroke:none;" d="M993 306L994 307L993 306M1401 306L1402 307L1401 306M1464 306L1465 307L1464 306M336 307L337 308L336 307z"/>
<path style="fill:#5fbcff; stroke:none;" d="M369 307L370 308L369 307M336 308L337 309L336 308z"/>
<path style="fill:#addcff; stroke:none;" d="M369 308L370 309L369 308z"/>
<path style="fill:#5fbcff; stroke:none;" d="M994 308L995 309L994 308M1400 308L1401 309L1400 308M1465 308L1466 309L1465 308z"/>
<path style="fill:#addcff; stroke:none;" d="M929 309L929 310L932 310L929 309M1400 309L1401 310L1400 309M1465 309L1466 310L1465 309M337.333 310.667L337.667 311.333L337.333 310.667z"/>
<path style="fill:#5fbcff; stroke:none;" d="M937 310L937 311L940 311L937 310z"/>
<path style="fill:#addcff; stroke:none;" d="M940 310L941 311L940 310z"/>
<path style="fill:#5fbcff; stroke:none;" d="M995 310L996 311L995 310M1466 310L1467 311L1466 310M370 311L371 312L370 311M942.667 311.333L943.333 311.667L942.667 311.333z"/>
<path style="fill:#addcff; stroke:none;" d="M944 311L945 312L944 311M995 311L996 312L995 311z"/>
<path style="fill:#5fbcff; stroke:none;" d="M1399 311L1400 312L1399 311z"/>
<path style="fill:#addcff; stroke:none;" d="M1466 311L1467 312L1466 311z"/>
<path style="fill:#5fbcff; stroke:none;" d="M337 312L338 313L337 312z"/>
<path style="fill:#addcff; stroke:none;" d="M370 312L371 313L370 312z"/>
<path style="fill:#5fbcff; stroke:none;" d="M945 312L946 313L945 312z"/>
<path style="fill:#addcff; stroke:none;" d="M946 312L947 313L946 312M1399 312L1400 313L1399 312z"/>
<path style="fill:#5fbcff; stroke:none;" d="M947 313L948 314L947 313z"/>
<path style="fill:#addcff; stroke:none;" d="M948 313L949 314L948 313z"/>
<path style="fill:#5fbcff; stroke:none;" d="M996 313L997 314L996 313M1467 313L1468 314L1467 313z"/>
<path style="fill:#addcff; stroke:none;" d="M338 314L339 315L338 314M949 314L950 315L949 314M996 314L997 315L996 314z"/>
<path style="fill:#5fbcff; stroke:none;" d="M1398 314L1399 315L1398 314z"/>
<path style="fill:#addcff; stroke:none;" d="M1467 314L1468 315L1467 314z"/>
<path style="fill:#5fbcff; stroke:none;" d="M338.333 315.667L338.667 316.333L338.333 315.667M950 315L951 316L950 315z"/>
<path style="fill:#addcff; stroke:none;" d="M1398 315L1399 316L1398 315M371 316L372 317L371 316z"/>
<path style="fill:#5fbcff; stroke:none;" d="M951 316L952 317L951 316M997.333 316.667L997.667 317.333L997.333 316.667M1397 316L1398 317L1397 316M1468 316L1469 317L1468 316z"/>
<path style="fill:#addcff; stroke:none;" d="M952 317L953 318L952 317M1397 317L1398 318L1397 317M1468 317L1469 318L1468 317M339 318L340 319L339 318M953 318L954 319L953 318M997 318L998 319L997 318z"/>
<path style="fill:#5fbcff; stroke:none;" d="M339.333 319.667L339.667 320.333L339.333 319.667M953 319L954 320L953 319M1396 319L1397 320L1396 319M1469 319L1470 320L1469 319z"/>
<path style="fill:#addcff; stroke:none;" d="M954 320L955 321L954 320M1396 320L1397 321L1396 320M1469 320L1470 321L1469 320z"/>
<path style="fill:#5fbcff; stroke:none;" d="M954 321L955 322L954 321M998.333 321.667L998.667 322.333L998.333 321.667z"/>
<path style="fill:#addcff; stroke:none;" d="M340 322L341 323L340 322M955 322L956 323L955 322z"/>
<path style="fill:#5fbcff; stroke:none;" d="M1395 322L1396 323L1395 322M1470 322L1471 323L1470 322M340 323L341 324L340 323M955 323L956 324L955 323z"/>
<path style="fill:#addcff; stroke:none;" d="M998 323L999 324L998 323M1395 323L1396 324L1395 323M1470 323L1471 324L1470 323M956.333 325.667L956.667 326.333L956.333 325.667z"/>
<path style="fill:#5fbcff; stroke:none;" d="M1394 325L1395 326L1394 325z"/>
<path style="fill:#addcff; stroke:none;" d="M1471 325L1472 326L1471 325M341 326L342 327L341 326M1394 326L1395 327L1394 326z"/>
<path style="fill:#5fbcff; stroke:none;" d="M341 327L342 328L341 327M956 327L957 328L956 327M999 327L999 330L1000 330L999 327M1472 327L1473 328L1472 327M1393 328L1394 329L1393 328z"/>
<path style="fill:#addcff; stroke:none;" d="M1472 328L1473 329L1472 328M1393 329L1394 330L1393 329M342 330L343 331L342 330M957.333 330.667L957.667 331.333L957.333 330.667M999 330L999 333L1000 333L999 330z"/>
<path style="fill:#5fbcff; stroke:none;" d="M1473 330L1474 331L1473 330M342 331L343 332L342 331M1392 331L1393 332L1392 331z"/>
<path style="fill:#addcff; stroke:none;" d="M1430.67 331.333L1431.33 331.667L1430.67 331.333M1473 331L1474 332L1473 331z"/>
<path style="fill:#5fbcff; stroke:none;" d="M957 332L957 336L958 336L957 332M1430.67 332.333L1431.33 332.667L1430.67 332.333M1391 333L1392 334L1391 333M1474 333L1475 334L1474 333z"/>
<path style="fill:#addcff; stroke:none;" d="M343 334L344 335L343 334M1391 334L1392 335L1391 334M1429 334L1430 335L1429 334M1432 334L1433 335L1432 334M1474 334L1475 335L1474 334z"/>
<path style="fill:#5fbcff; stroke:none;" d="M343 335L344 336L343 335M1429 335L1430 336L1429 335M1432 335L1433 336L1432 335M1390 336L1391 337L1390 336M1475 336L1476 337L1475 336z"/>
<path style="fill:#addcff; stroke:none;" d="M1390 337L1391 338L1390 337M1428 337L1429 338L1428 337M1433 337L1434 338L1433 337M1475 337L1476 338L1475 337M344 338L345 339L344 338z"/>
<path style="fill:#5fbcff; stroke:none;" d="M1428 338L1429 339L1428 338M1433 338L1434 339L1433 338M344 339L345 340L344 339M1000 339L1000 403L1001 403L1001 359L1000 339M1389 339L1390 340L1389 339M1476 339L1477 340L1476 339z"/>
<path style="fill:#addcff; stroke:none;" d="M1389 340L1390 341L1389 340M1427 340L1428 341L1427 340M1434 340L1435 341L1434 340M345.333 341.667L345.667 342.333L345.333 341.667z"/>
<path style="fill:#5fbcff; stroke:none;" d="M1427 341L1428 342L1427 341M1434 341L1435 342L1434 341M1477 341L1478 342L1477 341M1388 342L1389 343L1388 342z"/>
<path style="fill:#addcff; stroke:none;" d="M1477 342L1478 343L1477 342z"/>
<path style="fill:#5fbcff; stroke:none;" d="M345 343L346 344L345 343z"/>
<path style="fill:#addcff; stroke:none;" d="M1388 343L1389 344L1388 343M1426 343L1427 344L1426 343M1435 343L1436 344L1435 343z"/>
<path style="fill:#5fbcff; stroke:none;" d="M1426 344L1427 345L1426 344M1435 344L1436 345L1435 344M1478 344L1479 345L1478 344z"/>
<path style="fill:#addcff; stroke:none;" d="M346 345L347 346L346 345z"/>
<path style="fill:#5fbcff; stroke:none;" d="M1387 345L1388 346L1387 345z"/>
<path style="fill:#addcff; stroke:none;" d="M1478 345L1479 346L1478 345z"/>
<path style="fill:#5fbcff; stroke:none;" d="M346.333 346.667L346.667 347.333L346.333 346.667z"/>
<path style="fill:#addcff; stroke:none;" d="M1425 346L1426 347L1425 346M1436 346L1437 347L1436 346z"/>
<path style="fill:#5fbcff; stroke:none;" d="M1386 347L1387 348L1386 347M1425 347L1426 348L1425 347M1436 347L1437 348L1436 347M1479 347L1480 348L1479 347z"/>
<path style="fill:#addcff; stroke:none;" d="M1386 348L1387 349L1386 348M1479 348L1480 349L1479 348M347 349L348 350L347 349M1424 349L1425 350L1424 349M1437 349L1438 350L1437 349z"/>
<path style="fill:#5fbcff; stroke:none;" d="M347 350L348 351L347 350M1385 350L1386 351L1385 350M1424 350L1425 351L1424 350M1437 350L1438 351L1437 350M1480 350L1481 351L1480 350z"/>
<path style="fill:#addcff; stroke:none;" d="M1385 351L1386 352L1385 351M1480 351L1481 352L1480 351M1423 352L1424 353L1423 352M1438 352L1439 353L1438 352M348 353L349 354L348 353z"/>
<path style="fill:#5fbcff; stroke:none;" d="M1384 353L1385 354L1384 353M1423 353L1424 354L1423 353M1438 353L1439 354L1438 353M1481 353L1482 354L1481 353M348 354L349 355L348 354z"/>
<path style="fill:#addcff; stroke:none;" d="M1384 354L1385 355L1384 354M1422 355L1423 356L1422 355M1439 355L1440 356L1439 355z"/>
<path style="fill:#5fbcff; stroke:none;" d="M1383 356L1384 357L1383 356M1422 356L1423 357L1422 356M1439 356L1440 357L1439 356z"/>
<path style="fill:#addcff; stroke:none;" d="M1482 356L1483 357L1482 356M349 357L350 358L349 357M1383 357L1384 358L1383 357z"/>
<path style="fill:#5fbcff; stroke:none;" d="M349 358L350 359L349 358z"/>
<path style="fill:#addcff; stroke:none;" d="M1421 358L1422 359L1421 358M1440 358L1441 359L1440 358z"/>
<path style="fill:#5fbcff; stroke:none;" d="M1483 358L1484 359L1483 358M1382 359L1383 360L1382 359M1421 359L1422 360L1421 359M1440 359L1441 360L1440 359z"/>
<path style="fill:#addcff; stroke:none;" d="M1483 359L1484 360L1483 359M350 361L351 362L350 361M1420 361L1421 362L1420 361M1441 361L1442 362L1441 361z"/>
<path style="fill:#5fbcff; stroke:none;" d="M1484 361L1485 362L1484 361M350 362L351 363L350 362z"/>
<path style="fill:#addcff; stroke:none;" d="M1381 362L1382 363L1381 362z"/>
<path style="fill:#5fbcff; stroke:none;" d="M1420 362L1421 363L1420 362M1441 362L1442 363L1441 362z"/>
<path style="fill:#addcff; stroke:none;" d="M1484 362L1485 363L1484 362z"/>
<path style="fill:#5fbcff; stroke:none;" d="M1380 364L1381 365L1380 364z"/>
<path style="fill:#addcff; stroke:none;" d="M1419 364L1420 365L1419 364M1442 364L1443 365L1442 364z"/>
<path style="fill:#5fbcff; stroke:none;" d="M1485 364L1486 365L1485 364z"/>
<path style="fill:#addcff; stroke:none;" d="M351 365L352 366L351 365M1380 365L1381 366L1380 365z"/>
<path style="fill:#5fbcff; stroke:none;" d="M1419 365L1420 366L1419 365M1442 365L1443 366L1442 365z"/>
<path style="fill:#addcff; stroke:none;" d="M1485 365L1486 366L1485 365z"/>
<path style="fill:#5fbcff; stroke:none;" d="M351 366L352 367L351 366M1379 367L1380 368L1379 367z"/>
<path style="fill:#addcff; stroke:none;" d="M1418 367L1419 368L1418 367M1443 367L1444 368L1443 367z"/>
<path style="fill:#5fbcff; stroke:none;" d="M1486 367L1487 368L1486 367z"/>
<path style="fill:#addcff; stroke:none;" d="M352.333 368.667L352.667 369.333L352.333 368.667M1379 368L1380 369L1379 368z"/>
<path style="fill:#5fbcff; stroke:none;" d="M1418 368L1419 369L1418 368M1443 368L1444 369L1443 368z"/>
<path style="fill:#addcff; stroke:none;" d="M1486 368L1487 369L1486 368z"/>
<path style="fill:#5fbcff; stroke:none;" d="M352 370L353 371L352 370z"/>
<path style="fill:#addcff; stroke:none;" d="M664.333 370.667L664.667 371.333L664.333 370.667z"/>
<path style="fill:#5fbcff; stroke:none;" d="M1378 370L1379 371L1378 370z"/>
<path style="fill:#addcff; stroke:none;" d="M1417 370L1418 371L1417 370M1444 370L1445 371L1444 370M1487 370L1488 371L1487 370z"/>
<path style="fill:#5fbcff; stroke:none;" d="M622.333 371.667L622.667 372.333L622.333 371.667z"/>
<path style="fill:#addcff; stroke:none;" d="M1378 371L1379 372L1378 371z"/>
<path style="fill:#5fbcff; stroke:none;" d="M1417 371L1418 372L1417 371M1444 371L1445 372L1444 371z"/>
<path style="fill:#addcff; stroke:none;" d="M353 372L354 373L353 372z"/>
<path style="fill:#5fbcff; stroke:none;" d="M353.333 373.667L353.667 374.333L353.333 373.667z"/>
<path style="fill:#addcff; stroke:none;" d="M580 373L580 376L581 376L580 373M622.333 373.667L622.667 374.333L622.333 373.667M704 373L704 376L705 376L704 373z"/>
<path style="fill:#5fbcff; stroke:none;" d="M1377 373L1378 374L1377 373z"/>
<path style="fill:#addcff; stroke:none;" d="M1416 373L1417 374L1416 373M1445 373L1446 374L1445 373M1488 373L1489 374L1488 373z"/>
<path style="fill:#5fbcff; stroke:none;" d="M663.333 374.667L663.667 375.333L663.333 374.667M1416 374L1417 375L1416 374M1445 374L1446 375L1445 374M1489 375L1490 376L1489 375z"/>
<path style="fill:#addcff; stroke:none;" d="M354 376L355 377L354 376z"/>
<path style="fill:#5fbcff; stroke:none;" d="M580.333 376.667L580.667 377.333L580.333 376.667M623 376L624 377L623 376z"/>
<path style="fill:#addcff; stroke:none;" d="M663 376L664 377L663 376z"/>
<path style="fill:#5fbcff; stroke:none;" d="M704.333 376.667L704.667 377.333L704.333 376.667M1376 376L1377 377L1376 376z"/>
<path style="fill:#addcff; stroke:none;" d="M1415 376L1416 377L1415 376M1446 376L1447 377L1446 376M1489 376L1490 377L1489 376z"/>
<path style="fill:#5fbcff; stroke:none;" d="M354.333 377.667L354.667 378.333L354.333 377.667z"/>
<path style="fill:#addcff; stroke:none;" d="M623 377L624 378L623 377z"/>
<path style="fill:#5fbcff; stroke:none;" d="M1415 377L1416 378L1415 377M1446 377L1447 378L1446 377M662 378L663 379L662 378M1375 378L1376 379L1375 378M1490 378L1491 379L1490 378M624 379L625 380L624 379z"/>
<path style="fill:#addcff; stroke:none;" d="M662 379L663 380L662 379M1375 379L1376 380L1375 379M1414 379L1415 380L1414 379M1447 379L1448 380L1447 379M1490 379L1491 380L1490 379M355 380L356 381L355 380M581.333 380.667L581.667 381.333L581.333 380.667M624 380L625 381L624 380z"/>
<path style="fill:#5fbcff; stroke:none;" d="M661 380L662 381L661 380z"/>
<path style="fill:#addcff; stroke:none;" d="M703.333 380.667L703.667 381.333L703.333 380.667z"/>
<path style="fill:#5fbcff; stroke:none;" d="M1414 380L1415 381L1414 380M1447 380L1448 381L1447 380M355 381L356 382L355 381M625 381L626 382L625 381z"/>
<path style="fill:#addcff; stroke:none;" d="M661 381L662 382L661 381z"/>
<path style="fill:#5fbcff; stroke:none;" d="M1374 381L1375 382L1374 381M1491 381L1492 382L1491 381M581.333 382.667L581.667 383.333L581.333 382.667z"/>
<path style="fill:#addcff; stroke:none;" d="M625 382L626 383L625 382z"/>
<path style="fill:#5fbcff; stroke:none;" d="M660 382L661 383L660 382M703.333 382.667L703.667 383.333L703.333 382.667z"/>
<path style="fill:#addcff; stroke:none;" d="M1374 382L1375 383L1374 382M1413 382L1414 383L1413 382M1448 382L1449 383L1448 382M1491 382L1492 383L1491 382M626 383L627 384L626 383z"/>
<path style="fill:#5fbcff; stroke:none;" d="M659 383L660 384L659 383M1413 383L1414 384L1413 383M1448 383L1449 384L1448 383z"/>
<path style="fill:#addcff; stroke:none;" d="M356 384L357 385L356 384M627 384L628 385L627 384z"/>
<path style="fill:#5fbcff; stroke:none;" d="M658 384L659 385L658 384M1373 384L1374 385L1373 384M1492 384L1493 385L1492 384M356 385L357 386L356 385z"/>
<path style="fill:#addcff; stroke:none;" d="M582 385L583 386L582 385M628 385L629 386L628 385z"/>
<path style="fill:#5fbcff; stroke:none;" d="M657 385L658 386L657 385z"/>
<path style="fill:#addcff; stroke:none;" d="M702 385L703 386L702 385M1373 385L1374 386L1373 385M1412 385L1413 386L1412 385z"/>
<path style="fill:#5fbcff; stroke:none;" d="M484 386L484 387L557 387L534 386L484 386M582.333 386.667L582.667 387.333L582.333 386.667z"/>
<path style="fill:#addcff; stroke:none;" d="M629 386L630 387L629 386z"/>
<path style="fill:#5fbcff; stroke:none;" d="M656 386L657 387L656 386M702 386L703 387L702 386M778 386L778 387L851 387L828 386L778 386M1273 386L1273 387L1346 387L1323 386L1273 386M1412 386L1413 387L1412 386M1449 386L1450 387L1449 386M631 387L632 388L631 387M654 387L655 388L654 387z"/>
<path style="fill:#addcff; stroke:none;" d="M655 387L656 388L655 387M850 387L850 425L851 425C851 414.089 854.211 397.036 850 387z"/>
<path style="fill:#5fbcff; stroke:none;" d="M1372 387L1373 388L1372 387z"/>
<path style="fill:#addcff; stroke:none;" d="M1493 387L1494 388L1493 387M357 388L358 389L357 388z"/>
<path style="fill:#5fbcff; stroke:none;" d="M633 388L634 389L633 388z"/>
<path style="fill:#addcff; stroke:none;" d="M653 388L654 389L653 388M1411 388L1412 389L1411 388z"/>
<path style="fill:#5fbcff; stroke:none;" d="M357 389L358 390L357 389z"/>
<path style="fill:#addcff; stroke:none;" d="M583 389L584 390L583 389M635 389L636 390L635 389z"/>
<path style="fill:#5fbcff; stroke:none;" d="M636.667 389.333L637.333 389.667L636.667 389.333M649 389L650 390L649 389z"/>
<path style="fill:#addcff; stroke:none;" d="M650.667 389.333L651.333 389.667L650.667 389.333M701 389L702 390L701 389z"/>
<path style="fill:#5fbcff; stroke:none;" d="M1411 389L1412 390L1411 389M1450 389L1451 390L1450 389M1494 389L1495 390L1494 389M583 390L584 391L583 390z"/>
<path style="fill:#addcff; stroke:none;" d="M640 390L640 391L647 391L640 390z"/>
<path style="fill:#5fbcff; stroke:none;" d="M701 390L702 391L701 390M1371 390L1372 391L1371 390z"/>
<path style="fill:#addcff; stroke:none;" d="M1494 390L1495 391L1494 390M1410 391L1411 392L1410 391M358 392L359 393L358 392M584 392L585 393L584 392M700 392L701 393L700 392z"/>
<path style="fill:#5fbcff; stroke:none;" d="M1410 392L1411 393L1410 392z"/>
<path style="fill:#addcff; stroke:none;" d="M1451 392L1452 393L1451 392z"/>
<path style="fill:#5fbcff; stroke:none;" d="M1495 392L1496 393L1495 392M358 393L359 394L358 393M584 393L585 394L584 393z"/>
<path style="fill:#addcff; stroke:none;" d="M1370 393L1371 394L1370 393z"/>
<path style="fill:#5fbcff; stroke:none;" d="M1451 393L1452 394L1451 393z"/>
<path style="fill:#addcff; stroke:none;" d="M1495 393L1496 394L1495 393M585 394L586 395L585 394M699 394L700 395L699 394M1409 394L1410 395L1409 394z"/>
<path style="fill:#5fbcff; stroke:none;" d="M585 395L586 396L585 395M699 395L700 396L699 395M1369 395L1370 396L1369 395M1409 395L1410 396L1409 395z"/>
<path style="fill:#addcff; stroke:none;" d="M1452 395L1453 396L1452 395z"/>
<path style="fill:#5fbcff; stroke:none;" d="M1496 395L1497 396L1496 395z"/>
<path style="fill:#addcff; stroke:none;" d="M359 396L360 397L359 396M1369 396L1370 397L1369 396z"/>
<path style="fill:#5fbcff; stroke:none;" d="M1452 396L1453 397L1452 396z"/>
<path style="fill:#addcff; stroke:none;" d="M1496 396L1497 397L1496 396z"/>
<path style="fill:#5fbcff; stroke:none;" d="M359 397L360 398L359 397M586 397L587 398L586 397M698 397L699 398L698 397z"/>
<path style="fill:#addcff; stroke:none;" d="M1408 397L1409 398L1408 397z"/>
<path style="fill:#5fbcff; stroke:none;" d="M1368 398L1369 399L1368 398z"/>
<path style="fill:#addcff; stroke:none;" d="M1453 398L1454 399L1453 398z"/>
<path style="fill:#5fbcff; stroke:none;" d="M1497 398L1498 399L1497 398z"/>
<path style="fill:#addcff; stroke:none;" d="M360.333 399.667L360.667 400.333L360.333 399.667z"/>
<path style="fill:#5fbcff; stroke:none;" d="M587 399L588 400L587 399M697 399L698 400L697 399z"/>
<path style="fill:#addcff; stroke:none;" d="M1368 399L1369 400L1368 399z"/>
<path style="fill:#5fbcff; stroke:none;" d="M1453 399L1454 400L1453 399z"/>
<path style="fill:#addcff; stroke:none;" d="M958 400L958 409L959 409L958 400z"/>
<path style="fill:#5fbcff; stroke:none;" d="M1407 400L1408 401L1407 400M360 401L361 402L360 401z"/>
<path style="fill:#addcff; stroke:none;" d="M588 401L589 402L588 401z"/>
<path style="fill:#5fbcff; stroke:none;" d="M696 401L697 402L696 401M1367 401L1368 402L1367 401z"/>
<path style="fill:#addcff; stroke:none;" d="M1454 401L1455 402L1454 401z"/>
<path style="fill:#5fbcff; stroke:none;" d="M1498 401L1499 402L1498 401z"/>
<path style="fill:#addcff; stroke:none;" d="M695 402L696 403L695 402M1367 402L1368 403L1367 402z"/>
<path style="fill:#5fbcff; stroke:none;" d="M1454 402L1455 403L1454 402z"/>
<path style="fill:#addcff; stroke:none;" d="M361 403L362 404L361 403z"/>
<path style="fill:#5fbcff; stroke:none;" d="M589 403L590 404L589 403M695 403L696 404L695 403z"/>
<path style="fill:#addcff; stroke:none;" d="M1000 403L1000 408L1001 408L1000 403z"/>
<path style="fill:#5fbcff; stroke:none;" d="M1406 403L1407 404L1406 403M361.333 404.667L361.667 405.333L361.333 404.667z"/>
<path style="fill:#addcff; stroke:none;" d="M590 404L591 405L590 404M694 404L695 405L694 404z"/>
<path style="fill:#5fbcff; stroke:none;" d="M1366 404L1367 405L1366 404z"/>
<path style="fill:#addcff; stroke:none;" d="M1455 404L1456 405L1455 404M1499 404L1500 405L1499 404z"/>
<path style="fill:#5fbcff; stroke:none;" d="M1455 405L1456 406L1455 405M591 406L592 407L591 406M693 406L694 407L693 406M1405 406L1406 407L1405 406M1500 406L1501 407L1500 406z"/>
<path style="fill:#addcff; stroke:none;" d="M362 407L363 408L362 407M592 407L593 408L592 407z"/>
<path style="fill:#5fbcff; stroke:none;" d="M692 407L693 408L692 407z"/>
<path style="fill:#addcff; stroke:none;" d="M1365 407L1366 408L1365 407M1456 407L1457 408L1456 407M1500 407L1501 408L1500 407z"/>
<path style="fill:#5fbcff; stroke:none;" d="M362.333 408.667L362.667 409.333L362.333 408.667z"/>
<path style="fill:#addcff; stroke:none;" d="M593 408L594 409L593 408M691 408L692 409L691 408z"/>
<path style="fill:#5fbcff; stroke:none;" d="M1456 408L1457 409L1456 408z"/>
<path style="fill:#addcff; stroke:none;" d="M594 409L595 410L594 409M690 409L691 410L690 409z"/>
<path style="fill:#5fbcff; stroke:none;" d="M958 409L958 412L959 412L958 409M1364 409L1365 410L1364 409M1404 409L1405 410L1404 409M1501 409L1502 410L1501 409z"/>
<path style="fill:#addcff; stroke:none;" d="M1364 410L1365 411L1364 410M1457 410L1458 411L1457 410M1501 410L1502 411L1501 410M363 411L364 412L363 411z"/>
<path style="fill:#5fbcff; stroke:none;" d="M595 411L596 412L595 411M689 411L690 412L689 411z"/>
<path style="fill:#addcff; stroke:none;" d="M1403 411L1404 412L1403 411z"/>
<path style="fill:#5fbcff; stroke:none;" d="M1457 411L1458 412L1457 411M363 412L364 413L363 412M596 412L597 413L596 412M688 412L689 413L688 412M1001.33 412.667L1001.67 413.333L1001.33 412.667M1363 412L1364 413L1363 412M1403 412L1404 413L1403 412M1502 412L1503 413L1502 412M597 413L598 414L597 413M687 413L688 414L687 413z"/>
<path style="fill:#addcff; stroke:none;" d="M1363 413L1364 414L1363 413M1458 413L1459 414L1458 413M1502 413L1503 414L1502 413z"/>
<path style="fill:#5fbcff; stroke:none;" d="M598 414L599 415L598 414M686 414L687 415L686 414z"/>
<path style="fill:#addcff; stroke:none;" d="M959.333 414.667L959.667 415.333L959.333 414.667M1001 414L1002 415L1001 414M1402 414L1403 415L1402 414z"/>
<path style="fill:#5fbcff; stroke:none;" d="M1458 414L1459 415L1458 414z"/>
<path style="fill:#addcff; stroke:none;" d="M364 415L365 416L364 415z"/>
<path style="fill:#5fbcff; stroke:none;" d="M599 415L600 416L599 415z"/>
<path style="fill:#addcff; stroke:none;" d="M600 415L601 416L600 415z"/>
<path style="fill:#5fbcff; stroke:none;" d="M685 415L686 416L685 415M1362 415L1363 416L1362 415M1402 415L1403 416L1402 415M1503 415L1504 416L1503 415M364 416L365 417L364 416z"/>
<path style="fill:#addcff; stroke:none;" d="M601 416L602 417L601 416M683 416L684 417L683 416z"/>
<path style="fill:#5fbcff; stroke:none;" d="M959.333 416.667L959.667 417.333L959.333 416.667z"/>
<path style="fill:#addcff; stroke:none;" d="M1362 416L1363 417L1362 416M1459 416L1460 417L1459 416z"/>
<path style="fill:#5fbcff; stroke:none;" d="M602 417L603 418L602 417M682 417L683 418L682 417M1002 417L1003 418L1002 417z"/>
<path style="fill:#addcff; stroke:none;" d="M1401 417L1402 418L1401 417z"/>
<path style="fill:#5fbcff; stroke:none;" d="M1459 417L1460 418L1459 417M603 418L604 419L603 418z"/>
<path style="fill:#addcff; stroke:none;" d="M604 418L605 419L604 418M680 418L681 419L680 418z"/>
<path style="fill:#5fbcff; stroke:none;" d="M681 418L682 419L681 418z"/>
<path style="fill:#addcff; stroke:none;" d="M1002 418L1003 419L1002 418z"/>
<path style="fill:#5fbcff; stroke:none;" d="M1361 418L1362 419L1361 418M1401 418L1402 419L1401 418z"/>
<path style="fill:#addcff; stroke:none;" d="M1504 418L1505 419L1504 418M365 419L366 420L365 419z"/>
<path style="fill:#5fbcff; stroke:none;" d="M605 419L606 420L605 419M679 419L680 420L679 419z"/>
<path style="fill:#addcff; stroke:none;" d="M960 419L961 420L960 419M1460 419L1461 420L1460 419z"/>
<path style="fill:#5fbcff; stroke:none;" d="M365 420L366 421L365 420z"/>
<path style="fill:#addcff; stroke:none;" d="M607 420L608 421L607 420M677 420L678 421L677 420z"/>
<path style="fill:#5fbcff; stroke:none;" d="M960 420L961 421L960 420M1003 420L1004 421L1003 420z"/>
<path style="fill:#addcff; stroke:none;" d="M1400 420L1401 421L1400 420z"/>
<path style="fill:#5fbcff; stroke:none;" d="M1460 420L1461 421L1460 420M1505 420L1506 421L1505 420M608 421L609 422L608 421z"/>
<path style="fill:#addcff; stroke:none;" d="M609 421L610 422L609 421M675 421L676 422L675 421z"/>
<path style="fill:#5fbcff; stroke:none;" d="M676 421L677 422L676 421z"/>
<path style="fill:#addcff; stroke:none;" d="M1003 421L1004 422L1003 421M1360 421L1361 422L1360 421z"/>
<path style="fill:#5fbcff; stroke:none;" d="M1400 421L1401 422L1400 421z"/>
<path style="fill:#addcff; stroke:none;" d="M1505 421L1506 422L1505 421z"/>
<path style="fill:#5fbcff; stroke:none;" d="M610 422L611 423L610 422z"/>
<path style="fill:#addcff; stroke:none;" d="M611 422L612 423L611 422M673 422L674 423L673 422z"/>
<path style="fill:#5fbcff; stroke:none;" d="M674 422L675 423L674 422z"/>
<path style="fill:#addcff; stroke:none;" d="M961 422L962 423L961 422M1461 422L1462 423L1461 422M366 423L367 424L366 423z"/>
<path style="fill:#5fbcff; stroke:none;" d="M612 423L613 424L612 423z"/>
<path style="fill:#addcff; stroke:none;" d="M613 423L614 424L613 423M671 423L672 424L671 423z"/>
<path style="fill:#5fbcff; stroke:none;" d="M672 423L673 424L672 423M961.333 423.667L961.667 424.333L961.333 423.667M1004 423L1005 424L1004 423M1359 423L1360 424L1359 423z"/>
<path style="fill:#addcff; stroke:none;" d="M1399 423L1400 424L1399 423z"/>
<path style="fill:#5fbcff; stroke:none;" d="M1461 423L1462 424L1461 423M1506 423L1507 424L1506 423M366 424L367 425L366 424M615 424L616 425L615 424z"/>
<path style="fill:#addcff; stroke:none;" d="M616 424L617 425L616 424M668 424L669 425L668 424z"/>
<path style="fill:#5fbcff; stroke:none;" d="M669 424L670 425L669 424z"/>
<path style="fill:#addcff; stroke:none;" d="M1359 424L1360 425L1359 424z"/>
<path style="fill:#5fbcff; stroke:none;" d="M1399 424L1400 425L1399 424z"/>
<path style="fill:#addcff; stroke:none;" d="M1506 424L1507 425L1506 424z"/>
<path style="fill:#5fbcff; stroke:none;" d="M618 425L619 426L618 425z"/>
<path style="fill:#addcff; stroke:none;" d="M619 425L620 426L619 425M665 425L666 426L665 425z"/>
<path style="fill:#5fbcff; stroke:none;" d="M666 425L667 426L666 425M621 426L622 427L621 426z"/>
<path style="fill:#addcff; stroke:none;" d="M622.667 426.333L623.333 426.667L622.667 426.333M661.667 426.333L662.333 426.667L661.667 426.333z"/>
<path style="fill:#5fbcff; stroke:none;" d="M663 426L664 427L663 426M625.667 427.333L626.333 427.667L625.667 427.333z"/>
<path style="fill:#addcff; stroke:none;" d="M627.667 427.333L628.333 427.667L627.667 427.333M656.667 427.333L657.333 427.667L656.667 427.333z"/>
<path style="fill:#5fbcff; stroke:none;" d="M658.667 427.333L659.333 427.667L658.667 427.333M632.667 428.333L633.333 428.667L632.667 428.333z"/>
<path style="fill:#addcff; stroke:none;" d="M634 428L634 429L642 429L634 428M643 428L643 429L651 429L643 428z"/>
<path style="fill:#5fbcff; stroke:none;" d="M651.667 428.333L652.333 428.667L651.667 428.333z"/>
<path style="fill:#010101; stroke:none;" d="M0 563L0 596L33 596L33 595C13.5363 592.366 8.03793 578.004 0 563M1919 563C1916.82 579.129 1903.13 592.817 1887 595L1887 596L1920 596L1919 563z"/>
</svg>
